<svg xmlns="http://www.w3.org/2000/svg" style="display: none;"><symbol id="sports" viewBox="0 0 512.001 512.001"><title>sports</title><path d="M493.532,475.061c-2.807-3.076-7.652-3.144-10.81-0.431l-9.118,7.83c-19.109,16.41-46.611,18.985-68.437,6.41 l-124.486-71.738c7.665-21.37,0.593-45.213-17.539-58.937l42.281-71.574l63.556,31.239c5.239,2.575,10.837,3.88,16.64,3.88 c0.001,0,0.001,0,0.002,0c14.521,0,27.52-8.092,33.923-21.119c3.634-7.393,4.737-15.581,3.249-23.536l14.844,7.299 c1.079,0.53,2.224,0.782,3.35,0.782c2.983,0,5.844-1.762,7.062-4.767c1.513-3.737-0.335-8.008-3.952-9.787l-41.528-20.419 c-0.088-0.044-0.172-0.093-0.262-0.137l-43.774-21.516l-5.067-2.492c-0.005-0.002-0.01-0.004-0.015-0.006l-10.57-5.195 l13.358-13.358c4.144-4.144,7.199-9.085,9.038-14.472c12.841,6.87,27.172,10.397,42.019,10.228 c47.619-0.538,86.331-39.791,86.244-87.414c-0.088-48.039-39.198-87.094-87.257-87.094c-14.366,0-27.919,3.511-39.882,9.688 c0.031-0.615,0.047-1.234,0.047-1.857c0-21.027-17.841-37.967-39.18-36.476c-18.013,1.258-32.605,15.85-33.863,33.863 c-1.49,21.34,15.449,39.18,36.476,39.18c0.15,0,0.298-0.01,0.448-0.011c-5.998,10.584-9.845,22.533-10.95,35.261H183.326 c-14.958,0-28.54,4.841-39.277,14.003c-0.179,0.153-0.351,0.315-0.529,0.47l-33.452-16.442l5.655-11.309 c1.73-3.459,0.785-7.786-2.431-9.934c-3.888-2.599-9.033-1.143-11.057,2.904l-5.816,11.632L74.164,88.77 c-3.737-1.837-8.411-0.559-10.359,3.121c-2.016,3.808-0.474,8.501,3.364,10.386l22.449,11.033l-5.353,10.706 c-1.816,3.631-0.676,8.185,2.832,10.228c1.216,0.708,2.535,1.041,3.832,1.041c2.789,0,5.475-1.541,6.807-4.205l5.531-11.062 l29.903,14.698c-4.075,6.136-7.098,13.062-8.82,20.388c-3.016,12.833-1.93,26.352,3.06,38.067 c5.531,12.985,15.532,23.37,28.925,30.035l11.155,5.551c3.76,1.871,8.324,0.34,10.196-3.42c1.871-3.76,0.34-8.324-3.42-10.196 l-11.155-5.551c-23.753-11.82-27.75-34.864-23.955-51.005c1.333-5.67,3.912-11.67,7.838-17.074l112.892,55.486l-7.755,7.755 c-8.599,8.598-12.545,20.894-10.557,32.889c1.988,11.996,9.691,22.36,20.604,27.724l29.556,14.528l-28.119,47.6l-54.537-29.6 l25.752-43.5c1.582-2.672,1.426-6.131-0.673-8.722c-0.701-0.865-1.62-1.531-2.617-2.027l-25.998-12.937 c-3.76-1.871-8.324-0.34-10.196,3.42c-1.871,3.76-0.34,8.324,3.42,10.196l18.81,9.36l-56.097,94.758l-133.597-76.99 c-3.639-2.098-8.289-0.848-10.385,2.791c-2.097,3.639-0.847,8.289,2.791,10.385l377.286,217.42 c11.587,6.677,24.446,9.953,37.247,9.953c17.476,0,34.84-6.107,48.691-18.002l9.36-8.039 C496.118,483.174,496.436,478.244,493.532,475.061z M395.727,263.779c5.343,2.669,9.347,7.24,11.276,12.9 c1.945,5.705,1.551,11.826-1.107,17.236c-3.825,7.784-11.595,12.619-20.275,12.619c-3.457,0-6.799-0.781-9.931-2.321l-8.454-4.155 l19.907-40.5L395.727,263.779z M406.283,188.043c-14.08,0-27.569-4.016-39.238-11.632c-0.965-8.437-4.712-16.25-10.807-22.344 c-4.647-4.647-10.215-7.823-16.121-9.538c-2.899-6.682-4.734-13.689-5.485-20.935H441.98l-0.583,12.171 c-0.201,4.195,3.037,7.758,7.231,7.959c0.124,0.006,0.247,0.009,0.37,0.009c4.033,0,7.394-3.169,7.589-7.24l0.617-12.899h20.721 C474.118,159.762,443.443,188.043,406.283,188.043z M406.283,43.947c25.082,0,47.201,12.891,60.108,32.388h-15.209 c-4.2,0-7.604,3.405-7.604,7.604s3.405,7.604,7.604,7.604h22.87c1.937,5.35,3.257,10.993,3.874,16.842H334.639 c0.617-5.85,1.938-11.492,3.874-16.842h77.182c4.2,0,7.604-3.405,7.604-7.604s-3.405-7.604-7.604-7.604h-69.52 C359.081,56.839,381.201,43.947,406.283,43.947z M329.88,57.928c-11.778,0-21.358-9.581-21.358-21.359s9.581-21.359,21.358-21.359 s21.359,9.581,21.359,21.359S341.657,57.928,329.88,57.928z M158.777,130.358c6.506-4.134,14.642-6.764,24.549-6.764h136.023 c0.582,6.826,1.96,13.482,4.109,19.924c-7.563,1.222-14.823,4.731-20.642,10.549l-31.568,31.569L158.777,130.358z M268.885,251.718c-6.517-3.205-11.12-9.397-12.307-16.563c-1.188-7.166,1.169-14.511,6.306-19.647l50.684-50.685 c4.4-4.399,10.179-6.598,15.958-6.598c5.778,0,11.559,2.2,15.957,6.598c4.262,4.263,6.611,9.93,6.611,15.958 s-2.347,11.695-6.611,15.958l-20.872,20.872c-1.735,1.735-2.527,4.201-2.125,6.621c0.402,2.42,1.946,4.499,4.147,5.581 l24.026,11.81l22.832,11.227l-19.908,40.501L268.885,251.718z M267.198,409.365l-92.54-53.328l26.668-45.046l54.549,29.607 l-9.528,16.128c-1.035,1.752-1.325,3.847-0.803,5.814c0.521,1.968,1.809,3.644,3.576,4.655l0.756,0.433 C264.829,376.172,271.583,393.433,267.198,409.365z"/></symbol></svg>