<svg xmlns="http://www.w3.org/2000/svg" style="display: none;"><symbol id="multimedia" viewBox="0 0 333.662 333.662"><title>multimedia</title><path d="M288.681,5.733H44.988C20.18,5.733,0,25.913,0,50.721v164.418c0,24.801,20.18,44.988,44.988,44.988h5.219l-0.488,67.803 l98.138-67.803h140.818c24.801,0,44.988-20.187,44.988-44.988V50.721C333.668,25.913,313.482,5.733,288.681,5.733z M320.815,215.138c0,17.719-14.422,32.134-32.134,32.134H143.852l-81.1,56.023l0.405-56.029H44.988 c-17.719,0-32.134-14.415-32.134-32.134V50.721c0-17.719,14.415-32.134,32.134-32.134h243.686 c17.712,0,32.134,14.415,32.134,32.134v164.418H320.815z M68.124,72.289H265.75v12.854H68.124V72.289z M68.124,126.647H265.75 v12.854H68.124V126.647z M68.124,181.012h146.21v12.854H68.124V181.012z"/></symbol><symbol id="multimedia-1" viewBox="0 0 332.293 332.293"><title>multimedia-1</title><path d="M302.016,121.512h-39.692v-80.85c0-20.077-16.337-36.408-36.414-36.408H36.402C16.331,4.255,0,20.592,0,40.663v127.862 c0,20.077,16.331,36.421,36.402,36.421h2.629l-0.398,54.024l78.208-54.024h4.1v48.606c0,16.697,13.586,30.29,30.29,30.29h86.364 l63.973,44.197l-0.321-44.197h0.758c16.703,0,30.29-13.593,30.29-30.29v-101.75C332.306,135.098,318.713,121.512,302.016,121.512z M112.842,192.085l-61.177,42.25l0.315-42.25H36.402c-12.989,0-23.548-10.572-23.548-23.567V40.663 c0-12.989,10.566-23.554,23.548-23.554h189.502c12.989,0,23.561,10.566,23.561,23.554v80.85v47.006 c0,12.995-10.572,23.567-23.561,23.567H120.947H112.842z M319.452,253.545c0,9.615-7.821,17.436-17.436,17.436h-13.715 l0.244,32.423l-46.942-32.423h-90.368c-9.615,0-17.436-7.821-17.436-17.436v-48.606h92.109c20.077,0,36.414-16.343,36.414-36.421 v-34.152h39.692c9.615,0,17.436,7.821,17.436,17.436V253.545z M95.349,101.589c0,8.284-6.716,14.994-15,14.994s-15-6.71-15-14.994 s6.716-14.994,15-14.994S95.349,93.298,95.349,101.589z M146.153,101.589c0,8.284-6.703,14.994-14.987,14.994s-15-6.71-15-14.994 s6.716-14.994,15-14.994S146.153,93.298,146.153,101.589z M196.963,103.247c0,8.278-6.716,14.987-14.987,14.987 c-8.284,0-15-6.71-15-14.987s6.716-14.994,15-14.994C190.247,88.253,196.963,94.969,196.963,103.247z"/></symbol><symbol id="chat" viewBox="0 0 60 60"><title>chat</title><path d="M10,25.465h13c0.553,0,1-0.448,1-1s-0.447-1-1-1H10c-0.553,0-1,0.448-1,1S9.447,25.465,10,25.465z"/><path d="M36,29.465H10c-0.553,0-1,0.448-1,1s0.447,1,1,1h26c0.553,0,1-0.448,1-1S36.553,29.465,36,29.465z"/><path d="M36,35.465H10c-0.553,0-1,0.448-1,1s0.447,1,1,1h26c0.553,0,1-0.448,1-1S36.553,35.465,36,35.465z"/><path d="M54.072,2.535L19.93,2.465c-3.27,0-5.93,2.66-5.93,5.93v5.124l-8.07,0.017c-3.27,0-5.93,2.66-5.93,5.93v21.141 c0,3.27,2.66,5.929,5.93,5.929H12v10c0,0.413,0.254,0.784,0.64,0.933c0.117,0.045,0.239,0.067,0.36,0.067 c0.276,0,0.547-0.115,0.74-0.327l9.704-10.675l16.626-0.068c3.27,0,5.93-2.66,5.93-5.929v-0.113l5.26,5.786 c0.193,0.212,0.464,0.327,0.74,0.327c0.121,0,0.243-0.022,0.36-0.067c0.386-0.149,0.64-0.52,0.64-0.933v-10h1.07 c3.27,0,5.93-2.66,5.93-5.929V8.465C60,5.196,57.341,2.536,54.072,2.535z M44,40.536c0,2.167-1.763,3.929-3.934,3.929l-17.07,0.07 c-0.28,0.001-0.548,0.12-0.736,0.327L14,53.949v-8.414c0-0.552-0.447-1-1-1H5.93c-2.167,0-3.93-1.763-3.93-3.929V19.465 c0-2.167,1.763-3.93,3.932-3.93l9.068-0.019c0,0,0,0,0,0c0.001,0,0.001,0,0.002,0l25.068-0.052c2.167,0,3.93,1.763,3.93,3.93 v18.441V40.536z M58,29.606c0,2.167-1.763,3.929-3.93,3.929H52c-0.553,0-1,0.448-1,1v8.414l-5-5.5V19.395 c0-3.27-2.66-5.93-5.932-5.93L16,13.514v-5.12c0-2.167,1.763-3.93,3.928-3.93l34.141,0.07c0.001,0,0.001,0,0.002,0 c2.167,0,3.93,1.763,3.93,3.93V29.606z"/></symbol><symbol id="mail" viewBox="0 0 31.012 31.012"><title>mail</title><g> <path d="M25.109,21.51c-0.123,0-0.246-0.045-0.342-0.136l-5.754-5.398c-0.201-0.188-0.211-0.505-0.022-0.706 c0.189-0.203,0.504-0.212,0.707-0.022l5.754,5.398c0.201,0.188,0.211,0.505,0.022,0.706C25.375,21.457,25.243,21.51,25.109,21.51z "/> <path d="M5.902,21.51c-0.133,0-0.266-0.053-0.365-0.158c-0.189-0.201-0.179-0.518,0.022-0.706l5.756-5.398 c0.202-0.188,0.519-0.18,0.707,0.022c0.189,0.201,0.179,0.518-0.022,0.706l-5.756,5.398C6.148,21.465,6.025,21.51,5.902,21.51z"/> </g><path d="M28.512,26.529H2.5c-1.378,0-2.5-1.121-2.5-2.5V6.982c0-1.379,1.122-2.5,2.5-2.5h26.012c1.378,0,2.5,1.121,2.5,2.5v17.047 C31.012,25.408,29.89,26.529,28.512,26.529z M2.5,5.482c-0.827,0-1.5,0.673-1.5,1.5v17.047c0,0.827,0.673,1.5,1.5,1.5h26.012 c0.827,0,1.5-0.673,1.5-1.5V6.982c0-0.827-0.673-1.5-1.5-1.5H2.5z"/><path d="M15.506,18.018c-0.665,0-1.33-0.221-1.836-0.662L0.83,6.155C0.622,5.974,0.6,5.658,0.781,5.449 c0.183-0.208,0.498-0.227,0.706-0.048l12.84,11.2c0.639,0.557,1.719,0.557,2.357,0L29.508,5.419 c0.207-0.181,0.522-0.161,0.706,0.048c0.181,0.209,0.16,0.524-0.048,0.706L17.342,17.355 C16.835,17.797,16.171,18.018,15.506,18.018z"/></symbol><symbol id="coding" viewBox="0 0 512 512"><title>coding</title><g> <g> <path d="M502.01,350.434H9.99c-5.517,0-9.99,4.473-9.99,9.99v137.988c0,5.517,4.473,9.99,9.99,9.99H502.01 c5.517,0,9.99-4.473,9.99-9.99V360.424C512,354.907,507.527,350.434,502.01,350.434z M390.93,370.415h42.491v26.017H390.93 V370.415z M456.418,416.409v26.018h-26.017v-26.018H456.418z M410.423,416.409v26.018h-42.491v-26.018H410.423z M328.459,370.415 h42.491v26.017h-42.491V370.415z M347.952,416.409v26.018h-42.491v-26.018H347.952z M265.99,370.415h42.49v26.017h-42.49V370.415z M285.483,416.41v26.018h-42.491V416.41H285.483z M203.52,370.415h42.491v26.017H203.52V370.415z M223.013,416.409v26.018h-42.491 v-26.018H223.013z M141.049,370.415h42.491v26.017h-42.491V370.415z M160.541,416.409v26.018h-42.49v-26.018H160.541z M78.579,370.415h42.491v26.017H78.579V370.415z M98.072,416.41v26.018H55.58V416.41H98.072z M19.979,370.413H58.6v26.017H19.979 V370.413z M19.979,416.409h15.622v26.018H19.979V416.409z M58.6,488.423H19.979v-26.017H58.6V488.423z M121.07,488.423H78.579 v-26.017h42.491V488.423z M183.541,488.423h-42.491v-26.017h42.491V488.423z M308.48,488.423H203.52v-26.017H308.48V488.423z M370.951,488.423h-42.491v-26.017h42.491V488.423z M433.421,488.423H390.93v-26.017h42.491V488.423z M492.021,488.423H453.4 v-26.017h38.621V488.423z M476.397,442.428V416.41h15.622v26.018H476.397z M492.021,396.431H453.4v-26.017h38.621V396.431z"/> </g> </g><g> <g> <path d="M203.662,3.598H9.99C4.473,3.598,0,8.071,0,13.588v308.448c0,5.517,4.473,9.99,9.99,9.99h193.673 c5.517,0,9.99-4.473,9.99-9.99V13.588C213.652,8.071,209.179,3.598,203.662,3.598z M193.673,312.046H19.979V23.577h173.694 V312.046z"/> </g> </g><g> <g> <path d="M502.01,3.598H249.405c-5.517,0-9.99,4.473-9.99,9.99v308.448c0,5.517,4.473,9.99,9.99,9.99h252.604 c5.517,0,9.99-4.473,9.99-9.99V13.588C512,8.071,507.527,3.598,502.01,3.598z M492.02,312.046H259.394V66.199H492.02V312.046z M492.021,46.22H259.394V23.577h232.627V46.22z"/> </g> </g><g> <g> <path d="M161.435,53.798H52.216c-5.517,0-9.99,4.473-9.99,9.99c0,5.517,4.473,9.99,9.99,9.99h109.219 c5.517,0,9.99-4.473,9.99-9.99C171.424,58.27,166.951,53.798,161.435,53.798z"/> </g> </g><g> <g> <path d="M106.888,95.408H52.216c-5.517,0-9.99,4.473-9.99,9.99c0,5.517,4.473,9.99,9.99,9.99h54.672c5.517,0,9.99-4.473,9.99-9.99 C116.877,99.881,112.405,95.408,106.888,95.408z"/> </g> </g><g> <g> <path d="M161.435,137.017H52.216c-5.517,0-9.99,4.473-9.99,9.99c0,5.517,4.473,9.99,9.99,9.99h109.219 c5.517,0,9.99-4.473,9.99-9.99C171.424,141.489,166.951,137.017,161.435,137.017z"/> </g> </g><g> <g> <path d="M106.888,178.628H52.216c-5.517,0-9.99,4.473-9.99,9.99c0,5.517,4.473,9.99,9.99,9.99h54.672 c5.517,0,9.99-4.473,9.99-9.99C116.877,183.1,112.405,178.628,106.888,178.628z"/> </g> </g><g> <g> <path d="M161.435,220.236H52.216c-5.517,0-9.99,4.473-9.99,9.99c0,5.517,4.473,9.99,9.99,9.99h109.219 c5.517,0,9.99-4.473,9.99-9.99C171.424,224.709,166.951,220.236,161.435,220.236z"/> </g> </g><g> <g> <path d="M106.888,261.847H52.216c-5.517,0-9.99,4.473-9.99,9.99c0,5.517,4.473,9.99,9.99,9.99h54.672 c5.517,0,9.99-4.473,9.99-9.99C116.877,266.32,112.405,261.847,106.888,261.847z"/> </g> </g><g> <g> <path d="M303.601,184.46l31.551-31.551c3.903-3.9,3.903-10.225,0-14.127c-3.901-3.901-10.227-3.901-14.126,0l-38.614,38.614 c-3.901,3.901-3.901,10.227,0,14.127l38.614,38.614c1.95,1.95,4.507,2.926,7.063,2.926s5.113-0.975,7.063-2.926 c3.901-3.901,3.901-10.227,0-14.127L303.601,184.46z"/> </g> </g><g> <g> <path d="M469.004,177.397l-38.614-38.614c-3.901-3.901-10.227-3.901-14.127,0c-3.901,3.901-3.901,10.227,0,14.127l31.551,31.551 l-31.551,31.551c-3.901,3.901-3.901,10.227,0,14.127c1.95,1.95,4.507,2.926,7.063,2.926s5.113-0.975,7.063-2.926l38.614-38.614 C472.905,187.622,472.905,181.297,469.004,177.397z"/> </g> </g><g> <g> <path d="M390.015,110.84c-5.352-1.347-10.778,1.905-12.122,7.255l-23.747,94.566c-1.344,5.352,1.905,10.778,7.255,12.122 c0.816,0.205,1.636,0.304,2.44,0.304c4.471,0,8.543-3.025,9.682-7.559l23.747-94.566 C398.614,117.611,395.365,112.184,390.015,110.84z"/> </g> </g></symbol><symbol id="resume" viewBox="0 0 480 480"><title>resume</title><g> <g> <path d="M413.648,74.336L341.664,2.352C340.216,0.896,338.216,0,336,0H104C81.944,0,64,17.944,64,40v344c0,22.056,17.944,40,40,40 h88v56h16v-56h120c4.416,0,8-3.576,8-8v-40c0-14.88,10.216-27.432,24-30.984V416v64h16v-56c22.056,0,40-17.944,40-40V80 C416,77.784,415.104,75.784,413.648,74.336z M344,27.312L388.688,72H344V27.312z M400,384c0,13.232-10.768,24-24,24v-72 c0-4.424-3.584-8-8-8c-26.472,0-48,21.528-48,48v32H104c-13.232,0-24-10.768-24-24V40c0-13.232,10.768-24,24-24h224v64 c0,4.424,3.584,8,8,8h64V384z"/> </g> </g><g> <g> <path d="M224,48H112c-4.416,0-8,3.576-8,8v112c0,4.424,3.584,8,8,8h32h48h32c4.416,0,8-3.576,8-8V56C232,51.576,228.416,48,224,48 z M184,160h-32v-16c0-8.824,7.176-16,16-16c8.824,0,16,7.176,16,16V160z M160,104c0-4.416,3.592-8,8-8s8,3.584,8,8s-3.592,8-8,8 S160,108.416,160,104z M216,160h-16v-16c0-10.488-5.136-19.72-12.952-25.56c3.064-4.032,4.952-9,4.952-14.44 c0-13.232-10.768-24-24-24s-24,10.768-24,24c0,5.44,1.888,10.408,4.952,14.44C141.136,124.28,136,133.512,136,144v16h-16V64h96 V160z"/> </g> </g><g> <g> <rect x="248" y="72" width="40" height="16"/> </g> </g><g> <g> <rect x="248" y="104" width="48" height="16"/> </g> </g><g> <g> <rect x="312" y="104" width="40" height="16"/> </g> </g><g> <g> <rect x="248" y="136" width="104" height="16"/> </g> </g><g> <g> <rect x="144" y="200" width="64" height="16"/> </g> </g><g> <g> <rect x="224" y="200" width="48" height="16"/> </g> </g><g> <g> <rect x="288" y="200" width="80" height="16"/> </g> </g><g> <g> <rect x="112" y="232" width="64" height="16"/> </g> </g><g> <g> <rect x="192" y="232" width="128" height="16"/> </g> </g><g> <g> <rect x="336" y="232" width="32" height="16"/> </g> </g><g> <g> <rect x="112" y="264" width="32" height="16"/> </g> </g><g> <g> <rect x="160" y="264" width="96" height="16"/> </g> </g><g> <g> <rect x="272" y="264" width="96" height="16"/> </g> </g><g> <g> <rect x="112" y="296" width="32" height="16"/> </g> </g><g> <g> <rect x="160" y="296" width="96" height="16"/> </g> </g><g> <g> <rect x="272" y="296" width="96" height="16"/> </g> </g><g> <g> <rect x="112" y="328" width="72" height="16"/> </g> </g><g> <g> <rect x="200" y="328" width="112" height="16"/> </g> </g><g> <g> <rect x="112" y="360" width="32" height="16"/> </g> </g><g> <g> <rect x="160" y="360" width="136" height="16"/> </g> </g></symbol><symbol id="responsive" viewBox="0 0 480 480"><title>responsive</title><g> <g> <path d="M456,232V56c0-22.056-17.944-40-40-40H64c-22.056,0-40,17.944-40,40v120c-13.232,0-24,10.768-24,24v240 c0,13.232,10.768,24,24,24h176c13.232,0,24-10.768,24-24h67.048c7.544,0,14.496-3.44,19.072-9.432s6.064-13.608,4.08-20.88 L298.472,352H344v88c0,13.232,10.768,24,24,24h88c13.232,0,24-10.768,24-24V256C480,242.768,469.232,232,456,232z M208,440 c0,4.408-3.592,8-8,8H24c-4.408,0-8-3.592-8-8v-16h192V440z M208,408H16V232h192V408z M208,216H16v-16c0-4.408,3.592-8,8-8h176 c4.408,0,8,3.592,8,8V216z M298.768,413.896c0.664,2.424,0.168,4.96-1.36,6.96s-3.84,3.144-6.36,3.144H224v-16h73.16 L298.768,413.896z M224,392v-40h57.888l10.912,40H224z M344,336H224v-48h120V336z M344,256v16H224v-72c0-13.232-10.768-24-24-24 H40V56c0-13.232,10.768-24,24-24h352c13.232,0,24,10.768,24,24v176h-72C354.768,232,344,242.768,344,256z M464,440 c0,4.408-3.592,8-8,8h-88c-4.408,0-8-3.592-8-8v-16h104V440z M464,408H360V288h104V408z M464,272H360v-16c0-4.408,3.592-8,8-8h88 c4.408,0,8,3.592,8,8V272z"/> </g> </g><g> <g> <rect x="41.372" y="327.994" transform="matrix(0.7071 -0.7071 0.7071 0.7071 -218.8385 143.6649)" width="45.256" height="16"/> </g> </g><g> <g> <rect x="60.114" y="319.995" transform="matrix(0.7071 -0.7071 0.7071 0.7071 -194.4378 186.5751)" width="135.767" height="16"/> </g> </g><g> <g> <rect x="86.054" y="272.005" transform="matrix(0.7071 -0.7071 0.7071 0.7071 -162.8477 166.8601)" width="67.879" height="16"/> </g> </g><g> <g> <rect x="375.705" y="324.008" transform="matrix(0.7071 -0.7071 0.7071 0.7071 -116.4408 382.9028)" width="56.559" height="16"/> </g> </g><g> <g> <rect x="391.702" y="356.042" transform="matrix(0.7071 -0.7071 0.7071 0.7071 -134.4066 403.5971)" width="56.559" height="16"/> </g> </g><g> <g> <rect x="206.052" y="128.002" transform="matrix(0.7071 -0.7071 0.7071 0.7071 -25.876 209.5337)" width="67.879" height="16"/> </g> </g><g> <g> <rect x="278.057" y="112.001" transform="matrix(0.7071 -0.7071 0.7071 0.7071 6.5281 255.7627)" width="67.879" height="16"/> </g> </g><g> <g> <rect x="233.364" y="168.01" transform="matrix(0.7071 -0.7071 0.7071 0.7071 -49.4797 232.5655)" width="45.256" height="16"/> </g> </g><g> <g> <rect x="273.302" y="72.062" transform="matrix(0.7071 -0.7071 0.7071 0.7071 30.0796 232.7427)" width="45.368" height="16"/> </g> </g><g> <g> <rect x="56" y="48" width="16" height="16"/> </g> </g><g> <g> <rect x="88" y="48" width="16" height="16"/> </g> </g><g> <g> <rect x="120" y="48" width="16" height="16"/> </g> </g></symbol><symbol id="tools" viewBox="0 0 512 512"><title>tools</title><g> <g> <path d="M438.973,411.718c-14.598,0-26.475,11.876-26.475,26.475c0,14.598,11.876,26.474,26.475,26.474 c14.598,0,26.474-11.876,26.474-26.474C465.447,423.595,453.571,411.718,438.973,411.718z M438.972,448.977 c-5.946,0-10.784-4.838-10.784-10.784c0-5.946,4.838-10.784,10.784-10.784c5.946,0,10.784,4.838,10.784,10.784 S444.918,448.977,438.972,448.977z"/> </g> </g><g> <g> <path d="M510.303,436.82c-0.5-19.383-8.704-37.211-23.102-50.198L329.249,244.157l139.658-139.658 c0.918-0.274,1.825-0.615,2.7-1.077L501.85,87.46c4.178-2.206,6.98-6.152,7.685-10.823c0.706-4.672-0.805-9.268-4.146-12.612 l-34.052-34.051c-3.342-3.341-7.935-4.852-12.611-4.146c-4.671,0.705-8.616,3.507-10.823,7.686L431.94,63.755 c-0.466,0.883-0.824,1.796-1.099,2.723l-65.92,65.92c-3.064,3.065-3.064,8.031,0,11.096c3.065,3.062,8.031,3.062,11.096,0 l60.492-60.493l15.853,15.853l-154.7,154.7l-15.853-15.853l67.525-67.524c3.064-3.065,3.064-8.031,0-11.096 c-3.065-3.062-8.031-3.062-11.096,0l-48.994,48.994l-53.322-48.094c15.118-43.516,4.17-91.931-28.625-124.725 C173.706,1.665,123.314-9.04,78.916,7.987c-2.481,0.952-4.312,3.094-4.864,5.693s0.247,5.301,2.126,7.18l61.592,61.593 c1.822,1.822,2.827,4.245,2.827,6.822c0,2.577-1.004,5-2.827,6.823l-39.999,39.999c-1.822,1.823-4.245,2.827-6.822,2.827 c-2.577,0-5-1.003-6.823-2.827L22.533,74.504c-1.88-1.879-4.58-2.678-7.18-2.126c-2.599,0.553-4.741,2.383-5.693,4.864 c-17.027,44.396-6.322,94.788,27.27,128.381c31.991,31.99,79.468,43.253,122.299,29.414l41.227,45.083 c-1.981,3.871-4.557,7.481-7.734,10.658c-11.884,11.884-29.695,15.628-45.38,9.54c-2.899-1.128-6.188-0.434-8.388,1.765 l-96.059,96.059c-26.004,26.005-26.004,68.317,0,94.32C55.494,505.063,72.243,512,90.058,512c17.814,0,34.564-6.937,47.161-19.534 l96.059-96.058c2.198-2.199,2.891-5.489,1.765-8.388c-6.089-15.684-2.345-33.497,9.538-45.381 c11.886-11.884,29.698-15.628,45.382-9.54c2.901,1.128,6.188,0.432,8.388-1.765l18.12-18.12c5.456-5.456,8.46-12.711,8.46-20.426 c0-7.715-3.004-14.97-8.46-20.426l-7.713-7.713l9.383-9.383l158.552,143.007c11.172,10.077,17.539,23.911,17.926,38.951 c0.387,15.04-5.259,29.183-15.898,39.821c-10.588,10.59-24.695,16.226-39.636,15.903c-14.971-0.334-28.781-6.604-38.886-17.655 L282.31,346.378c-2.927-3.199-7.887-3.419-11.084-0.495c-3.197,2.925-3.419,7.887-0.495,11.084l117.888,128.915 c13.024,14.241,30.822,22.321,50.115,22.752c0.54,0.012,1.079,0.018,1.618,0.018c18.688,0,36.199-7.249,49.464-20.512 C503.526,474.429,510.801,456.203,510.303,436.82z M446.149,70.45l15.019-28.454l32.199,32.199l-28.454,15.019L446.149,70.45z M167.324,220.639c-2.16-2.36-5.534-3.174-8.532-2.056c-38.363,14.31-81.845,4.868-110.768-24.052 c-26.262-26.263-36.438-64.337-27.471-99.815l52.477,52.477c4.787,4.786,11.15,7.421,17.918,7.421s13.131-2.635,17.917-7.421 l39.999-39.999c4.786-4.787,7.421-11.15,7.421-17.918s-2.635-13.131-7.421-17.917L96.388,18.88 c35.475-8.971,73.553,1.208,99.814,27.471c29.659,29.657,38.773,74.003,23.222,112.978c-1.217,3.049-0.407,6.534,2.032,8.733 l56.679,51.122l-7.422,7.422L263,218.893c-5.456-5.456-12.711-8.46-20.426-8.46c-7.715,0-14.97,3.004-20.426,8.46l-18.12,18.12 c-2.198,2.199-2.891,5.489-1.765,8.388c2.087,5.375,2.992,10.997,2.837,16.548L167.324,220.639z M305.374,302.119l-14.682,14.683 c-20.192-5.821-42.164-0.299-57.205,14.741h-0.001c-15.04,15.041-20.563,37.01-14.74,57.206l-92.622,92.62 c-9.634,9.634-22.442,14.94-36.065,14.94s-26.433-5.306-36.065-14.94c-19.887-19.886-19.887-52.244,0-72.131l92.621-92.621 c20.194,5.824,42.163,0.298,57.205-14.742c15.04-15.041,20.564-37.01,14.741-57.205l14.683-14.682 c5.144-5.146,13.517-5.146,18.661,0l13.261,13.261l26.947,26.947l13.261,13.261C310.52,288.603,310.52,296.975,305.374,302.119z"/> </g> </g><g> <g> <path d="M162.326,346.249c-3.065-3.063-8.031-3.063-11.096,0l-74.318,74.318c-3.064,3.065-3.064,8.031,0,11.096 c1.532,1.531,3.541,2.297,5.548,2.297c2.007,0,4.016-0.766,5.548-2.297l74.318-74.318 C165.389,354.28,165.389,349.313,162.326,346.249z"/> </g> </g><g> <g> <path d="M189.785,373.708c-3.064-3.063-8.031-3.063-11.096,0l-74.318,74.317c-3.064,3.065-3.064,8.031,0,11.096 c1.532,1.531,3.54,2.297,5.548,2.297c2.007,0,4.016-0.766,5.548-2.297l74.318-74.317 C192.849,381.739,192.849,376.773,189.785,373.708z"/> </g> </g></symbol><symbol id="like" viewBox="0 0 51.997 51.997"><title>like</title><path d="M51.911,16.242C51.152,7.888,45.239,1.827,37.839,1.827c-4.93,0-9.444,2.653-11.984,6.905 c-2.517-4.307-6.846-6.906-11.697-6.906c-7.399,0-13.313,6.061-14.071,14.415c-0.06,0.369-0.306,2.311,0.442,5.478 c1.078,4.568,3.568,8.723,7.199,12.013l18.115,16.439l18.426-16.438c3.631-3.291,6.121-7.445,7.199-12.014 C52.216,18.553,51.97,16.611,51.911,16.242z M49.521,21.261c-0.984,4.172-3.265,7.973-6.59,10.985L25.855,47.481L9.072,32.25 c-3.331-3.018-5.611-6.818-6.596-10.99c-0.708-2.997-0.417-4.69-0.416-4.701l0.015-0.101C2.725,9.139,7.806,3.826,14.158,3.826 c4.687,0,8.813,2.88,10.771,7.515l0.921,2.183l0.921-2.183c1.927-4.564,6.271-7.514,11.069-7.514 c6.351,0,11.433,5.313,12.096,12.727C49.938,16.57,50.229,18.264,49.521,21.261z"/><path d="M15.999,7.904c-5.514,0-10,4.486-10,10c0,0.553,0.447,1,1,1s1-0.447,1-1c0-4.411,3.589-8,8-8c0.553,0,1-0.447,1-1 S16.551,7.904,15.999,7.904z"/></symbol><symbol id="diploma-1" viewBox="0 0 511.795 511.795"><title>diploma-1</title><path d="M307.098,179.004c0,4.71,3.814,8.533,8.533,8.533h85.333c4.719,0,8.533-3.823,8.533-8.533s-3.814-8.533-8.533-8.533 h-85.333C310.912,170.47,307.098,174.293,307.098,179.004z"/><path d="M358.298,230.204c0,4.71,3.814,8.533,8.533,8.533h51.2c4.719,0,8.533-3.823,8.533-8.533s-3.814-8.533-8.533-8.533h-51.2 C362.112,221.67,358.298,225.493,358.298,230.204z"/><path d="M349.764,136.337c4.719,0,8.533-3.823,8.533-8.533c0-4.71-3.814-8.533-8.533-8.533h-17.067 c-4.719,0-8.533,3.823-8.533,8.533c0,4.71,3.814,8.533,8.533,8.533H349.764z"/><path d="M247.364,221.67c-4.719,0-8.533,3.823-8.533,8.533s3.814,8.533,8.533,8.533h85.333c4.719,0,8.533-3.823,8.533-8.533 s-3.814-8.533-8.533-8.533H247.364z"/><path d="M290.031,460.604H127.898c-14.114,0-25.6-11.486-25.6-25.6V42.47c0-4.71-3.814-8.533-8.533-8.533 c-23.526,0-42.667,19.14-42.667,42.667c0,4.71,3.814,8.533,8.533,8.533s8.533-3.823,8.533-8.533 c0-11.128,7.134-20.617,17.067-24.141v382.541c0,23.526,19.14,42.667,42.667,42.667h162.133c4.719,0,8.533-3.823,8.533-8.533 S294.75,460.604,290.031,460.604z"/><path d="M162.031,187.537h119.467c4.719,0,8.533-3.823,8.533-8.533s-3.814-8.533-8.533-8.533H162.031 c-4.719,0-8.533,3.823-8.533,8.533S157.312,187.537,162.031,187.537z"/><path d="M162.031,136.337h34.133c4.719,0,8.533-3.823,8.533-8.533c0-4.71-3.814-8.533-8.533-8.533h-34.133 c-4.719,0-8.533,3.823-8.533,8.533C153.498,132.514,157.312,136.337,162.031,136.337z"/><path d="M298.564,119.27h-68.267c-4.719,0-8.533,3.823-8.533,8.533c0,4.71,3.814,8.533,8.533,8.533h68.267 c4.719,0,8.533-3.823,8.533-8.533C307.098,123.093,303.283,119.27,298.564,119.27z"/><path d="M418.031,0H93.764c-42.249,0-76.638,34.295-76.8,76.501v0.102v0.094V76.8v0.102 c0.111,27.213,14.797,52.565,38.391,66.219c4.079,2.355,9.293,0.964,11.656-3.106c2.372-4.079,0.964-9.301-3.106-11.657 C45.508,117.7,34.065,97.92,34.031,76.698c0.06-32.888,26.829-59.631,59.733-59.631h324.267c32.93,0,59.733,26.795,59.733,59.733 v358.4c0,4.326-1.212,8.67-3.49,12.544c-2.381,4.062-1.033,9.293,3.029,11.682c1.365,0.802,2.85,1.178,4.318,1.178 c2.927,0,5.777-1.502,7.364-4.207c3.823-6.494,5.845-13.824,5.845-21.197V76.8C494.831,34.449,460.382,0,418.031,0z"/><path d="M443.631,392.337c0-28.237-22.963-51.2-51.2-51.2c-28.237,0-51.2,22.963-51.2,51.2c0,28.237,22.963,51.2,51.2,51.2 C420.668,443.537,443.631,420.574,443.631,392.337z M392.431,426.47c-18.825,0-34.133-15.309-34.133-34.133 s15.309-34.133,34.133-34.133c18.825,0,34.133,15.309,34.133,34.133S411.256,426.47,392.431,426.47z"/><path d="M377.028,452.079c-4.07-2.355-9.293-0.956-11.657,3.123l-18.372,31.838l-2.918-4.403 c-1.476-2.244-3.925-3.661-6.605-3.814l-5.274-0.316l18.68-32.341c2.355-4.079,0.956-9.301-3.123-11.657 c-4.079-2.364-9.301-0.964-11.665,3.123l-25.574,44.297c-1.476,2.56-1.519,5.709-0.12,8.311s4.045,4.301,7.006,4.471 l14.788,0.887l8.166,12.365c1.579,2.398,4.258,3.831,7.117,3.831h0.265c2.944-0.094,5.649-1.707,7.134-4.267l25.284-43.793 C382.515,459.657,381.116,454.434,377.028,452.079z"/><path d="M448.99,438.033c-2.364-4.087-7.595-5.487-11.657-3.123c-4.087,2.355-5.487,7.578-3.132,11.656l18.458,31.94 l-5.274,0.316c-2.679,0.162-5.128,1.579-6.613,3.814l-2.901,4.403l-18.278-31.676c-2.372-4.079-7.595-5.478-11.665-3.123 c-4.079,2.355-5.478,7.578-3.123,11.657l25.19,43.631c1.485,2.56,4.19,4.173,7.134,4.267h0.265c2.85,0,5.538-1.434,7.125-3.831 l8.158-12.356l14.78-0.896c2.961-0.171,5.606-1.869,7.006-4.471s1.348-5.751-0.119-8.311L448.99,438.033z"/><path d="M162.031,238.737h51.2c4.719,0,8.533-3.823,8.533-8.533s-3.814-8.533-8.533-8.533h-51.2 c-4.719,0-8.533,3.823-8.533,8.533S157.312,238.737,162.031,238.737z"/><path d="M162.031,289.937h102.4c4.719,0,8.533-3.823,8.533-8.533s-3.814-8.533-8.533-8.533h-102.4 c-4.719,0-8.533,3.823-8.533,8.533S157.312,289.937,162.031,289.937z"/><path d="M162.935,396.151c2.099,4.215,7.228,5.922,11.443,3.823c4.215-2.108,5.931-7.236,3.814-11.452 c-8.448-16.896-10.342-32.051-5.086-40.559c2.799-4.531,7.68-6.827,14.524-6.827c4.07,0,5.589,1.399,6.545,2.765 c6.357,9.165,0.316,37.077-6.007,53.973c-1.408,3.763,0,7.996,3.379,10.172c3.362,2.159,7.808,1.69,10.65-1.143 c3.644-3.635,7.595-7.262,11.034-10.206v4.173c0,3.447,2.074,6.562,5.265,7.876c3.191,1.331,6.852,0.597,9.301-1.843 c3.9-3.891,8.422-7.706,12.228-10.453c-0.102,0.213-0.205,0.418-0.307,0.614c-1.306,2.645-1.161,5.786,0.393,8.294 c1.562,2.509,4.301,4.045,7.253,4.045h34.133c4.719,0,8.533-3.823,8.533-8.533s-3.814-8.533-8.533-8.533h-22.212 c0.691-4.062,0.521-8.192-1.536-11.52c-2.176-3.524-5.965-5.547-10.385-5.547c-5.274,0-11.477,3.208-17.143,7.185 c-0.435-3.721-2.637-6.784-5.982-8.166c-2.278-0.939-5.214-2.167-12.339,2.108c2.807-14.703,3.627-31.65-3.695-42.214 c-3.2-4.617-9.361-10.112-20.574-10.112c-12.783,0-23.1,5.299-29.047,14.925C150.076,352.768,151.654,373.598,162.935,396.151z"/><path d="M392.431,281.404c0-4.71-3.814-8.533-8.533-8.533h-85.333c-4.719,0-8.533,3.823-8.533,8.533s3.814,8.533,8.533,8.533 h85.333C388.617,289.937,392.431,286.114,392.431,281.404z"/></symbol><symbol id="diploma" viewBox="0 0 469.5 469.5"><title>diploma</title><path d="M416.25,97c4.142,0,7.5-3.358,7.5-7.5V36.95C423.75,16.576,406.852,0,386.081,0H83.15c-20.972,0-37.4,16.23-37.4,36.95 v335.1c0,20.926,16.777,37.95,37.4,37.95h73.6v52c0,2.599,1.346,5.013,3.557,6.38s4.973,1.491,7.297,0.328l36.646-18.323 l36.646,18.323c1.059,0.529,2.208,0.792,3.354,0.792c1.372,0,2.739-0.376,3.943-1.12c2.211-1.367,3.557-3.781,3.557-6.38v-52.013 l134.33-0.237c20.772,0,37.67-16.912,37.67-37.7V319.5c0-4.142-3.358-7.5-7.5-7.5h-52.5V97H416.25z M408.75,36.95V82h-45V37.45 c0-12.33,10.023-22.398,22.345-22.45C398.589,15.008,408.75,24.852,408.75,36.95z M240.718,340.384 c-1.05,0.562-1.948,1.367-2.625,2.339c-9.411,7.825-21.239,12.127-33.493,12.127c-13.013,0-25.507-4.817-35.176-13.56 c-11.009-9.967-17.324-24.161-17.324-38.94c0-28.949,23.551-52.5,52.5-52.5s52.5,23.551,52.5,52.5 C257.1,316.731,251.146,330.475,240.718,340.384z M236.75,449.865l-29.146-14.573c-2.111-1.056-4.597-1.056-6.708,0l-29.146,14.573 v-88.566c9.971,5.571,21.248,8.551,32.85,8.551c11.314,0,22.348-2.844,32.15-8.168V449.865z M251.75,350.601 c12.972-12.679,20.35-30.072,20.35-48.251c0-37.22-30.28-67.5-67.5-67.5s-67.5,30.28-67.5,67.5c0,17.806,7.12,34.943,19.65,47.569 V395h-73.6c-12.352,0-22.4-10.295-22.4-22.95V36.95c0-12.309,9.839-21.95,22.4-21.95h273.108c-4.71,6.264-7.508,14.041-7.508,22.45 v334.6c0,8.535,2.846,16.42,7.626,22.752l-104.626,0.185V350.601z M408.75,327v45.05c0,12.298-10.369,22.688-22.662,22.7 c-12.319-0.056-22.338-10.234-22.338-22.7V327H408.75z"/><path d="M204.6,264.85c-20.678,0-37.5,16.822-37.5,37.5s16.822,37.5,37.5,37.5s37.5-16.822,37.5-37.5S225.278,264.85,204.6,264.85z M204.6,324.85c-12.407,0-22.5-10.093-22.5-22.5s10.093-22.5,22.5-22.5s22.5,10.093,22.5,22.5S217.007,324.85,204.6,324.85z"/><path d="M304.75,152h-200c-4.142,0-7.5,3.358-7.5,7.5s3.358,7.5,7.5,7.5h200c4.142,0,7.5-3.358,7.5-7.5S308.892,152,304.75,152z"/><path d="M274.75,182h-140c-4.142,0-7.5,3.358-7.5,7.5s3.358,7.5,7.5,7.5h140c4.142,0,7.5-3.358,7.5-7.5S278.892,182,274.75,182z"/><path d="M304.75,122h-30c-4.142,0-7.5,3.358-7.5,7.5s3.358,7.5,7.5,7.5h30c4.142,0,7.5-3.358,7.5-7.5S308.892,122,304.75,122z"/><path d="M104.75,137h140c4.142,0,7.5-3.358,7.5-7.5s-3.358-7.5-7.5-7.5h-140c-4.142,0-7.5,3.358-7.5,7.5S100.608,137,104.75,137z"/><path d="M129.995,95.589c1.369,1.065,2.991,1.581,4.6,1.581c2.235,0,4.446-0.995,5.925-2.895l17.419-22.39l17.411,22.388 c1.421,1.827,3.605,2.896,5.919,2.896c2.315,0,4.5-1.068,5.92-2.895l17.419-22.39l17.411,22.388 c1.421,1.827,3.606,2.896,5.92,2.896s4.5-1.069,5.92-2.896l17.41-22.387l17.41,22.387c2.542,3.27,7.254,3.86,10.524,1.316 c3.27-2.543,3.859-7.255,1.316-10.524l-23.33-30c-1.421-1.827-3.606-2.896-5.92-2.896s-4.5,1.069-5.92,2.896l-17.41,22.387 l-17.41-22.387c-1.421-1.827-3.605-2.896-5.919-2.896c-2.315,0-4.5,1.068-5.92,2.895l-17.419,22.39L163.86,55.066 c-1.421-1.827-3.605-2.896-5.919-2.896c-2.315,0-4.5,1.068-5.92,2.895l-23.34,30C126.137,88.334,126.726,93.046,129.995,95.589z"/></symbol><symbol id="mortarboard" viewBox="0 0 512 512"><title>mortarboard</title><path d="M360.465,443.988c-4.574-1.161-9.207,1.638-10.342,6.204l-8.533,34.133c-1.152,4.582,1.638,9.207,6.212,10.351 c0.691,0.179,1.391,0.256,2.074,0.256c3.823,0,7.296-2.586,8.269-6.46l8.533-34.133 C367.821,449.765,365.039,445.132,360.465,443.988z"/><path d="M256,273.066c1.109,0,2.219-0.213,3.26-0.648l93.867-38.844c4.352-1.801,6.417-6.793,4.617-11.145 c-1.801-4.361-6.81-6.409-11.153-4.625L256,255.299L17.067,156.432v-2.833c0-4.71-3.823-8.533-8.533-8.533S0,148.889,0,153.599 v8.533c0,3.456,2.082,6.571,5.274,7.885l247.467,102.4C253.781,272.852,254.891,273.066,256,273.066z"/><path d="M357.513,360.49c-2.082-4.224-7.185-5.965-11.426-3.874c-16.205,8.013-43.273,17.331-81.553,18.603v-76.553 c0-4.71-3.823-8.533-8.533-8.533s-8.533,3.823-8.533,8.533v76.476c-105.958-3.379-140.151-67.567-145.067-78.251v-57.958 c0-4.71-3.823-8.533-8.533-8.533c-4.71,0-8.533,3.823-8.533,8.533v59.733c0,1.084,0.205,2.159,0.606,3.174 c1.485,3.695,37.803,90.692,170.061,90.692c46.225,0,78.618-11.213,97.647-20.617 C357.879,369.825,359.612,364.714,357.513,360.49z"/><path d="M384,452.266c-4.719,0-8.533,3.823-8.533,8.533v25.6c0,4.71,3.814,8.533,8.533,8.533c4.719,0,8.533-3.823,8.533-8.533 v-25.6C392.533,456.089,388.719,452.266,384,452.266z"/><path d="M503.467,145.066c-4.719,0-8.533,3.823-8.533,8.533v2.816l-102.4,42.146v-15.42l114.193-47.258 c3.191-1.314,5.274-4.429,5.274-7.885c0-3.456-2.082-6.562-5.265-7.885L259.26,17.714c-2.091-0.862-4.429-0.862-6.519,0 L5.274,120.114C2.082,121.437,0,124.543,0,127.999c0,3.456,2.082,6.571,5.274,7.885l247.467,102.4 c1.041,0.435,2.15,0.649,3.26,0.649s2.219-0.213,3.26-0.649l89.481-37.026c4.361-1.792,6.426-6.784,4.625-11.145 c-1.801-4.352-6.793-6.409-11.145-4.617L256,221.166L30.848,127.999L256,34.832l225.152,93.167l-97.971,40.542l-93.841-35.038 c0.495-1.775,0.794-3.601,0.794-5.504c0-14.353-14.993-25.6-34.133-25.6s-34.133,11.247-34.133,25.6 c0,14.353,14.993,25.6,34.133,25.6c8.542,0,16.162-2.33,22.084-6.084l97.382,36.361v27.341v0.009v182.878 c-9.907,3.541-17.067,12.919-17.067,24.03c0,14.114,11.486,25.6,25.6,25.6s25.6-11.486,25.6-25.6 c0-11.11-7.159-20.488-17.067-24.03v-48.435c24.499-18.492,33.28-43.119,33.664-44.211c0.307-0.896,0.469-1.843,0.469-2.79 v-59.733c0-4.71-3.814-8.533-8.533-8.533s-8.533,3.823-8.533,8.533v58.155c-1.476,3.618-6.605,14.771-17.067,25.779V217.019 l114.185-46.993c3.2-1.314,5.282-4.437,5.282-7.893v-8.533C512,148.889,508.186,145.066,503.467,145.066z M256,136.532 c-10.419,0-17.067-5.052-17.067-8.533c0-3.482,6.647-8.533,17.067-8.533s17.067,5.052,17.067,8.533 C273.067,131.481,266.419,136.532,256,136.532z M384,426.666c-4.71,0-8.533-3.831-8.533-8.533c0-4.702,3.823-8.533,8.533-8.533 s8.533,3.831,8.533,8.533C392.533,422.834,388.71,426.666,384,426.666z"/><path d="M417.877,450.192c-1.143-4.565-5.786-7.356-10.342-6.204c-4.574,1.143-7.356,5.777-6.212,10.351l8.533,34.133 c0.973,3.874,4.446,6.46,8.269,6.46c0.683,0,1.382-0.077,2.074-0.256c4.574-1.143,7.356-5.769,6.212-10.351L417.877,450.192z"/></symbol><symbol id="travel" viewBox="0 0 512 512"><title>travel</title><g> <g> <path d="M476.294,126.453H348.813v-22.251c0-22.589-18.378-40.967-40.967-40.967H204.154c-22.589,0-40.967,18.378-40.967,40.967 v22.251H35.706C16.018,126.453,0,142.471,0,162.158v250.9c0,19.689,16.018,35.706,35.706,35.706h440.587 c19.689,0,35.706-16.018,35.706-35.706v-250.9C512,142.471,495.982,126.453,476.294,126.453z M183.586,104.202 c0-11.342,9.227-20.569,20.569-20.569h103.691c11.341,0,20.569,9.227,20.569,20.569v22.251H183.586V104.202z M491.602,413.059 c0,8.441-6.867,15.308-15.308,15.308H35.706c-8.441,0-15.308-6.866-15.308-15.308V216.248L176.992,292.2 c3.174,19.356,20.012,34.174,40.251,34.174h77.514c20.239,0,37.077-14.818,40.251-34.174l97.809-47.442 c5.068-2.458,7.183-8.559,4.725-13.627c-2.457-5.069-8.558-7.185-13.627-4.725l-91.205,44.238 c-5.974-15.128-20.729-25.863-37.953-25.863h-77.514c-17.224,0-31.98,10.736-37.953,25.863L20.398,193.577v-31.419 c0-8.44,6.867-15.307,15.308-15.307h440.587c8.44,0,15.308,6.866,15.308,15.307V413.059z M196.845,285.578 c0-11.248,9.151-20.398,20.398-20.398h77.514c11.248,0,20.398,9.151,20.398,20.398s-9.151,20.398-20.398,20.398h-77.514 C205.995,305.976,196.845,296.825,196.845,285.578z"/> </g> </g><g> <g> <path d="M477.458,211.773c-2.457-5.07-8.559-7.183-13.627-4.727l-6.258,3.035c-5.069,2.458-7.184,8.56-4.727,13.627 c1.763,3.635,5.399,5.751,9.184,5.751c1.493,0,3.01-0.328,4.443-1.024l6.258-3.035C477.8,222.942,479.915,216.84,477.458,211.773z "/> </g> </g></symbol><symbol id="location" viewBox="0 0 512 512"><title>location</title><g> <g> <path d="M355.617,20.16l-0.675-0.285c-5.091-2.142-10.953,0.247-13.095,5.336c-2.143,5.088,0.247,10.952,5.336,13.094l0.641,0.27 c1.272,0.538,2.593,0.793,3.893,0.793c3.895,0,7.599-2.292,9.213-6.104C363.081,28.179,360.703,22.312,355.617,20.16z"/> </g> </g><g> <g> <path d="M142.55,214.34h-4.8c-4.672,0-8.474-3.802-8.474-8.474v-4.034c0-16.051-13.058-29.108-29.108-29.108 c-5.023,0-9.111-4.086-9.111-9.111v-29.596c0-5.522-4.476-9.999-9.999-9.999s-9.999,4.476-9.999,9.999v29.596 c-0.001,16.05,13.057,29.108,29.108,29.108c5.023,0,9.111,4.087,9.111,9.111v4.034c0,15.699,12.772,28.471,28.471,28.471h4.8 c5.522,0,9.999-4.476,9.999-9.999C152.549,218.816,148.072,214.34,142.55,214.34z"/> </g> </g><g> <g> <path d="M304.518,445.905c-1.86-1.86-4.439-2.93-7.069-2.93c-2.63,0-5.209,1.069-7.069,2.93c-1.86,1.86-2.93,4.439-2.93,7.069 c0,2.63,1.07,5.209,2.93,7.068c1.86,1.86,4.439,2.931,7.069,2.931c2.63,0,5.209-1.07,7.069-2.931 c1.86-1.859,2.93-4.438,2.93-7.068C307.447,450.344,306.377,447.765,304.518,445.905z"/> </g> </g><g> <g> <path d="M495.339,165.249c-4.711-12.451-10.393-24.542-17.024-36.137c-2.741-4.792-8.849-6.457-13.643-3.716 c-4.793,2.742-6.457,8.85-3.716,13.643c3.826,6.692,7.312,13.562,10.449,20.581h-55.393v-32.979l90.988-52.532 c3.094-1.786,4.999-5.086,4.999-8.659s-1.906-6.873-4.999-8.659L411.013,1.374c-3.094-1.786-6.904-1.786-9.999,0 c-3.094,1.786-4.999,5.086-4.999,8.659v78.51v32.328v41.071c-24.29,7.056-42.101,29.495-42.101,56.031v5.785 c0,3.387-2.756,6.142-6.142,6.142h-6.427c-20.399,0-36.995,16.596-36.995,36.995v18.641c0,21.521,17.51,39.031,39.031,39.031 h24.955c10.431,0,18.917,8.486,18.917,18.918c0,23.476,19.099,42.574,42.575,42.574c1.955,0,3.544,1.59,3.544,3.545v20.131 c0,0.524,0.052,1.034,0.13,1.536c-41.234,47.089-100.851,77.682-167.536,80.476v-7.46c0-17.963-14.613-32.576-32.576-32.576 h-57.415c-18.596,0-33.725-15.129-33.725-33.725v-1.231c0-26.118-21.249-47.366-47.367-47.366h-1.23 c-17.603,0-31.925-14.321-31.926-31.929c0-8.528,3.321-16.546,9.351-22.576c6.03-6.03,14.047-9.352,22.576-9.352h1.021 c9.281,0,16.831-7.551,16.831-16.832c0-9.557,7.775-17.331,17.331-17.331h65.662c17.483,0,31.706,14.223,31.706,31.706v34.805 c0,22.399,18.224,40.623,40.623,40.623c11.372,0,20.625,9.253,20.625,20.625v17.853c0,5.521,4.476,9.999,9.999,9.999 s9.999-4.477,9.999-9.999v-17.853c0-22.399-18.224-40.623-40.623-40.623c-11.373,0-20.625-9.253-20.625-20.625v-34.805 c0-28.509-23.194-51.703-51.703-51.703h-7.731v-10.174c0-1.969,1.602-3.57,3.571-3.57c23.511,0,42.638-19.126,42.638-42.637 c0-10.462,8.511-18.974,18.973-18.974h25.003c21.553,0,39.087-17.535,39.087-39.087v-18.676c0-20.428-16.62-37.048-37.048-37.048 h-10.448c-3.404,0-6.173-2.77-6.173-6.173v-5.796c0-20.116-10.218-37.891-25.734-48.409c6.377-0.52,12.822-0.797,19.331-0.797 c16.181,0,32.345,1.646,48.044,4.892c5.405,1.118,10.699-2.36,11.816-7.767c1.118-5.407-2.361-10.698-7.769-11.816 c-17.029-3.521-34.555-5.306-52.093-5.306c-68.371,0-132.649,26.624-180.996,74.971C26.624,123.351,0,187.629,0,256 s26.624,132.649,74.97,180.996c48.346,48.346,112.624,74.97,180.996,74.97c68.371,0,132.649-26.625,180.995-74.97 c48.347-48.347,74.971-112.625,74.971-180.996c0-30.488-5.446-60.659-15.93-88.993 C495.835,166.395,495.613,165.809,495.339,165.249z M416.013,88.542V27.35l65.991,38.1l-65.991,38.1V88.542z M245.966,491.744 C120.475,486.483,19.997,382.763,19.997,256c0-105.752,69.928-195.478,165.972-225.37c0.566,0.1,1.146,0.161,1.741,0.161h16.215 c21.199,0,38.446,17.247,38.446,38.446v5.796c0,14.43,11.74,26.171,26.171,26.171h10.448c9.402,0,17.051,7.649,17.051,17.051 v18.677c0,10.526-8.564,19.089-19.089,19.089h-25.003c-21.488,0-38.971,17.482-38.971,38.971c0,12.483-10.157,22.64-22.641,22.64 c-12.995,0-23.568,10.573-23.568,23.568v10.172h-37.933c-19.53,0-35.605,15.075-37.199,34.201 c-13.114,0.497-25.37,5.839-34.7,15.171c-9.807,9.808-15.207,22.847-15.207,36.722c0.002,28.629,23.294,51.92,51.923,51.92h1.23 c15.091,0,27.368,12.277,27.369,27.368v1.231c0,29.622,24.101,53.722,53.722,53.722h57.415c6.936,0,12.578,5.643,12.578,12.578 V491.744z M453.029,385.642c-1.888-11.103-11.57-19.585-23.202-19.585c-12.449,0-22.578-10.128-22.578-22.577 c0-21.458-17.457-38.915-38.914-38.915H343.38c-10.496,0-19.033-8.539-19.033-19.033v-18.641c0-9.373,7.625-16.998,16.998-16.998 h6.427c14.414,0,26.14-11.726,26.14-26.14v-5.785c0-15.341,9.059-28.601,22.104-34.729v23.766c0,5.522,4.476,9.999,9.999,9.999 c5.522,0,9.999-4.476,9.999-9.999v-27.389h63.248c8.346,24.462,12.674,50.295,12.674,76.385 C491.935,303.851,477.604,348.412,453.029,385.642z"/> </g> </g></symbol><symbol id="layers" viewBox="0 0 54.953 54.953"><title>layers</title><circle cx="45.021" cy="25.976" r="1"/><circle cx="9.021" cy="25.976" r="1"/><circle cx="12.021" cy="28.976" r="1"/><circle cx="18.021" cy="28.976" r="1"/><circle cx="15.021" cy="31.976" r="1"/><circle cx="21.021" cy="31.976" r="1"/><circle cx="24.021" cy="34.976" r="1"/><circle cx="30.021" cy="34.976" r="1"/><circle cx="33.021" cy="31.976" r="1"/><circle cx="27.021" cy="37.976" r="1"/><circle cx="36.021" cy="28.976" r="1"/><circle cx="42.021" cy="28.976" r="1"/><circle cx="39.021" cy="31.976" r="1"/><path d="M45.559,32.796l9.394-5.367l-9.656-5.483l9.656-5.517L27.477,0.826L0,16.429l9.656,5.517L0,27.429l9.656,5.517L0,38.429 l27.477,15.698l27.477-15.698l-9.656-5.483l0.071-0.041C45.439,32.879,45.497,32.837,45.559,32.796z M27.477,3.125l23.436,13.309 l-7.637,4.364l0,0l-15.798,9.026L4.041,16.434L27.477,3.125z M11.129,23.409c0.162,0.333,0.497,0.567,0.892,0.567 c0.27,0,0.512-0.109,0.692-0.283l2.262,1.292c-0.53,0.025-0.954,0.455-0.954,0.991c0,0.552,0.448,1,1,1s1-0.448,1-1 c0-0.173-0.055-0.327-0.132-0.469l10.33,5.902c-0.116,0.163-0.198,0.352-0.198,0.567c0,0.552,0.448,1,1,1s1-0.448,1-1 c0-0.051-0.021-0.094-0.029-0.143l10.052-5.743c0.059,0.496,0.465,0.885,0.977,0.885c0.552,0,1-0.448,1-1 c0-0.325-0.165-0.601-0.406-0.783l2.202-1.258c0.068,0.015,0.132,0.041,0.204,0.041c0.444,0,0.807-0.294,0.938-0.694l0.32-0.183 l7.634,4.335l-1.983,1.133c-0.157-0.347-0.503-0.591-0.908-0.591c-0.552,0-1,0.448-1,1c0,0.216,0.083,0.405,0.199,0.568 l-3.945,2.254l0,0l-6.388,3.65c0.078-0.142,0.134-0.298,0.134-0.472c0-0.552-0.448-1-1-1s-1,0.448-1,1 c0,0.537,0.426,0.967,0.957,0.991l-2.263,1.293c-0.18-0.174-0.423-0.284-0.694-0.284c-0.552,0-1,0.448-1,1 c0,0.08,0.028,0.151,0.046,0.226l-4.59,2.622l-5.517-3.152c-0.13-0.401-0.494-0.696-0.939-0.696c-0.073,0-0.138,0.027-0.206,0.042 l-2.201-1.257c0.241-0.183,0.407-0.458,0.407-0.784c0-0.552-0.448-1-1-1c-0.512,0-0.919,0.391-0.977,0.887L6.991,29.12 c0.007-0.049,0.029-0.093,0.029-0.144c0-0.552-0.448-1-1-1c-0.239,0-0.449,0.095-0.621,0.235l-1.359-0.776L11.129,23.409z M50.912,38.434l-23.436,13.39L4.041,38.434l7.633-4.335l15.803,9.028l15.802-9.028L50.912,38.434z"/></symbol><symbol id="space-shuttle" viewBox="0 0 511.981 511.981"><title>space-shuttle</title><path d="M499.271,12.7C488.621,2.054,473.212-2.307,458.563,1.18l-64.683,15.396c-7.74,1.896-14.817,5.864-20.471,11.479 L334.94,66.525c-1.455-4.353-3.889-8.314-7.115-11.579c-12.035-11.317-30.798-11.317-42.833,0L140.63,199.313 c-17.435,2.139-33.051,3.106-43.383,3.517c-14.221,0.429-27.754,6.221-37.883,16.213l-13.775,13.779 c-8.726,9.299-9.589,23.495-2.054,33.783l11.923,17.877L5.038,334.901c-6.717,6.735-6.717,17.636,0,24.371l18.454,18.454 c6.734,6.726,17.643,6.728,24.379,0.004l41.859-41.859l5.115,7.67l-15.974,15.972c-6.721,6.734-6.721,17.638,0,24.371l0.121,0.121 l-12.421,12.42c-3.235,3.231-5.053,7.615-5.054,12.187s1.816,8.957,5.05,12.188l24.608,24.608 c3.231,3.235,7.615,5.053,12.187,5.054s8.957-1.816,12.188-5.05l12.425-12.425l0.121,0.121c6.733,6.722,17.638,6.722,24.371,0 l15.972-15.974l7.67,5.115l-41.859,41.859c-6.722,6.735-6.722,17.64,0,24.375l18.458,18.458c6.735,6.717,17.636,6.717,24.371,0 l50.419-50.419l17.877,11.923c4.79,3.26,10.439,5.027,16.233,5.079c6.567,0.065,12.887-2.504,17.546-7.133l13.782-13.779 c9.992-10.126,15.783-23.656,16.213-37.875c0.411-10.335,1.378-25.952,3.517-43.388l144.366-144.362 c7.431-7.35,10.522-18.026,8.165-28.209c-2.357-10.183-9.824-18.416-19.729-21.753l38.46-38.459 c5.63-5.675,9.603-12.779,11.492-20.546l15.383-64.617C514.286,38.755,509.92,23.347,499.271,12.7z M297.059,67.013 c5.247-4.961,13.456-4.959,18.7,0.004c5.159,5.159,5.161,13.522,0.006,18.684l-27.694,27.695l-63.946,63.946 c-17.405,8.3-35.864,14.178-54.864,17.471L297.059,67.013z M97.917,219.88c34.517-1.371,94.308-6.858,134.165-27.416 c0.181-0.07,0.335-0.195,0.512-0.278c4.665-2.384,9.156-5.093,13.44-8.107c17.061-13.146,37.097-21.89,58.338-25.458 l-133.41,133.414c-2.006-0.339-4.032-0.537-6.066-0.593c-8.55-0.023-16.914,2.502-24.023,7.252l-68.42-68.421 C79.419,223.867,88.457,220.179,97.917,219.88z M349.717,187.113L213.453,323.377c-1.628-2.497-3.509-4.821-5.611-6.935 l-12.304-12.304c-2.114-2.102-4.438-3.983-6.935-5.611l136.264-136.264L349.717,187.113z M336.934,150.197l12.424-12.425 c1.544-1.545,3.268-2.901,5.133-4.037l33.921-20.025c2.711-0.378,5.441,0.547,7.362,2.496c0.319,0.32,0.613,0.663,0.88,1.027 c1.364,1.811,1.945,4.093,1.612,6.335l-19.988,33.867c-1.145,1.886-2.511,3.627-4.071,5.188l-12.425,12.425L336.934,150.197z M35.563,365.663l-18.459-18.696l48.008-48.008l14.952,22.419L35.563,365.663z M57.734,257.138 c-2.874-3.566-2.906-8.643-0.079-12.246l2.641-2.642l67.921,67.921l-21.066,21.064L57.734,257.138z M103.246,433.347 l-24.613-24.613v-0.237l12.425-12.425l24.808,24.813L103.246,433.347z M140.163,421.043l-6.154-6.154l-36.917-36.917l-6.154-6.154 l55.379-55.612c4.927-4.928,11.609-7.696,18.577-7.696c6.968,0,13.65,2.768,18.577,7.696l12.304,12.304 c4.927,4.927,7.696,11.609,7.696,18.577c0,6.968-2.768,13.65-7.696,18.577L140.163,421.043z M164.775,494.876l-18.458-18.7 l44.27-44.27l22.415,14.95L164.775,494.876z M267.084,454.326c-3.603,2.823-8.676,2.79-12.242-0.079l-74.097-49.418l21.063-21.066 l67.92,67.919L267.084,454.326z M292.1,414.067c-0.299,9.458-3.988,18.494-10.395,25.459l-68.419-68.419 c4.751-7.109,7.275-15.473,7.252-24.023c-0.056-2.033-0.254-4.06-0.593-6.066l133.443-133.443 c-3.584,21.25-12.335,41.293-25.483,58.367c-3.012,4.281-5.72,8.769-8.102,13.431c-0.086,0.184-0.215,0.343-0.287,0.531 C298.957,319.763,293.47,379.549,292.1,414.067z M444.967,214.922l-127.8,127.797c3.293-18.999,9.171-37.458,17.47-54.862 l63.947-63.947l27.691-27.69c5.233-4.989,13.461-4.988,18.693,0.003C450.121,201.389,450.121,209.754,444.967,214.922z M494.2,49.467l-15.362,64.525c-1.147,4.727-3.56,9.053-6.979,12.513l-57.647,57.644l-0.007,0.006l-49.918,49.918 c5.473-13.95,7.697-28.963,6.504-43.9l15.485-15.485c2.559-2.562,4.799-5.424,6.671-8.525l20.738-35.133 c0.408-0.694,0.716-1.441,0.917-2.221c2.263-8.84-0.306-18.218-6.758-24.671c-6.453-6.453-15.831-9.022-24.671-6.758 c-0.779,0.2-1.527,0.509-2.221,0.917l-35.188,20.771c-3.081,1.863-5.925,4.092-8.471,6.638l-15.542,15.542 c-14.908-1.235-29.9,0.964-43.825,6.429l49.9-49.9l0.006-0.008l57.64-57.642c3.439-3.405,7.738-5.812,12.438-6.967L462.5,17.784 c8.889-2.12,18.241,0.523,24.704,6.983C493.667,31.227,496.316,40.578,494.2,49.467z"/></symbol><symbol id="open-book" viewBox="0 0 512.004 512.004"><title>open-book</title><path d="M291.057,242.811c1.51,2.953,4.514,4.659,7.62,4.659c1.297,0,2.628-0.299,3.866-0.93 c0.503-0.256,50.731-25.771,75.503-33.596c4.489-1.425,6.98-6.221,5.555-10.709c-1.417-4.489-6.178-6.989-10.709-5.572 c-26.095,8.252-75.981,33.596-78.097,34.671C290.596,233.467,288.924,238.605,291.057,242.811z"/><path d="M298.677,145.071c1.297,0,2.628-0.299,3.866-0.93c0.503-0.256,50.731-25.771,75.503-33.596 c4.489-1.425,6.98-6.221,5.555-10.709c-1.417-4.489-6.178-6.989-10.709-5.572c-26.095,8.252-75.981,33.596-78.097,34.671 c-4.198,2.133-5.871,7.27-3.738,11.477C292.567,143.364,295.571,145.071,298.677,145.071z"/><path d="M503.469,128.004c-4.719,0-8.533,3.823-8.533,8.533v332.8c0,14.114-11.486,25.6-25.6,25.6h-204.8v-19.635 c12.442-4.352,44.851-14.498,76.8-14.498c74.334,0,124.809,16.461,125.312,16.631c2.568,0.853,5.436,0.427,7.68-1.178 c2.227-1.604,3.541-4.181,3.541-6.921V93.871c0-4.002-2.773-7.467-6.682-8.329c0,0-6.69-1.493-18.125-3.593 c-4.617-0.853-9.079,2.219-9.933,6.844c-0.853,4.642,2.21,9.088,6.844,9.941c4.361,0.802,8.013,1.51,10.829,2.074v357.188 c-19.337-5.069-62.276-14.259-119.467-14.259c-37.18,0-73.702,12.211-85.001,16.35c-10.044-4.437-40.405-16.35-77.133-16.35 c-58.778,0-107.196,9.694-128,14.618V100.475c17.041-4.19,67.371-15.138,128-15.138c31.113,0,57.796,9.685,68.267,14.063v335.804 c0,3.072,1.655,5.914,4.326,7.424c2.671,1.519,5.965,1.476,8.602-0.111c0.845-0.503,85.393-51.004,160.435-76.015 c3.49-1.169,5.837-4.42,5.837-8.098V8.537c0-2.799-1.374-5.419-3.678-7.014c-2.287-1.596-5.222-1.963-7.859-0.981 C346.856,26.15,277.771,69.141,277.079,69.568c-3.994,2.5-5.214,7.765-2.714,11.759c2.492,3.994,7.757,5.214,11.759,2.714 c0.631-0.401,60.732-37.794,123.477-63.027v331.281c-58.249,20.241-119.066,53.291-145.067,68.087V93.871 c0-3.234-1.826-6.187-4.719-7.637c-1.468-0.725-36.437-17.963-80.614-17.963c-77.107,0-136.388,16.683-138.88,17.399 c-3.661,1.041-6.187,4.395-6.187,8.201v375.467c0,2.671,1.263,5.197,3.388,6.81c1.502,1.135,3.311,1.724,5.146,1.724 c0.785,0,1.57-0.111,2.338-0.333c0.589-0.162,59.597-16.734,134.195-16.734c31.198,0,57.856,9.711,68.267,14.071v20.062h-204.8 c-14.114,0-25.6-11.486-25.6-25.6v-332.8c0-4.71-3.823-8.533-8.533-8.533s-8.533,3.823-8.533,8.533v332.8 c0,23.526,19.14,42.667,42.667,42.667h426.667c23.526,0,42.667-19.14,42.667-42.667v-332.8 C512.002,131.827,508.188,128.004,503.469,128.004z"/><path d="M291.057,191.611c1.51,2.953,4.514,4.659,7.62,4.659c1.297,0,2.628-0.299,3.866-0.93 c0.503-0.256,50.731-25.771,75.503-33.596c4.489-1.425,6.98-6.221,5.555-10.709c-1.417-4.489-6.178-6.989-10.709-5.572 c-26.095,8.252-75.981,33.596-78.097,34.671C290.596,182.267,288.924,187.405,291.057,191.611z"/><path d="M291.057,294.011c1.51,2.953,4.514,4.659,7.62,4.659c1.297,0,2.628-0.299,3.866-0.93 c0.503-0.256,50.731-25.771,75.503-33.596c4.489-1.425,6.98-6.221,5.555-10.709c-1.417-4.489-6.178-6.989-10.709-5.572 c-26.095,8.252-75.981,33.596-78.097,34.671C290.596,284.667,288.924,289.805,291.057,294.011z"/><path d="M206.748,158.366c-52.693-12.365-112.572,3.388-115.089,4.062c-4.548,1.22-7.253,5.896-6.033,10.453 c1.024,3.814,4.471,6.323,8.235,6.323c0.734,0,1.476-0.094,2.219-0.29c0.572-0.162,58.223-15.326,106.778-3.934 c4.565,1.067,9.182-1.775,10.257-6.366C214.189,164.032,211.339,159.441,206.748,158.366z"/><path d="M206.748,209.566c-52.693-12.356-112.572,3.388-115.089,4.062c-4.548,1.22-7.253,5.897-6.033,10.453 c1.024,3.814,4.471,6.323,8.235,6.323c0.734,0,1.476-0.094,2.219-0.29c0.572-0.162,58.223-15.326,106.778-3.934 c4.565,1.067,9.182-1.775,10.257-6.366C214.189,215.232,211.339,210.641,206.748,209.566z"/><path d="M291.057,345.211c1.51,2.953,4.514,4.659,7.62,4.659c1.297,0,2.628-0.299,3.866-0.93 c0.503-0.256,50.731-25.771,75.503-33.596c4.489-1.425,6.98-6.221,5.555-10.709c-1.417-4.488-6.178-6.989-10.709-5.572 c-26.095,8.252-75.981,33.596-78.097,34.671C290.596,335.867,288.924,341.005,291.057,345.211z"/><path d="M206.748,260.766c-52.693-12.356-112.572,3.379-115.089,4.062c-4.548,1.22-7.253,5.897-6.033,10.453 c1.024,3.814,4.471,6.332,8.235,6.332c0.734,0,1.476-0.102,2.219-0.299c0.572-0.162,58.223-15.326,106.778-3.934 c4.565,1.067,9.182-1.775,10.257-6.366C214.189,266.432,211.339,261.841,206.748,260.766z"/><path d="M206.748,363.166c-52.693-12.365-112.572,3.388-115.089,4.062c-4.548,1.22-7.253,5.897-6.033,10.453 c1.024,3.814,4.471,6.332,8.235,6.332c0.734,0,1.476-0.102,2.219-0.299c0.572-0.162,58.223-15.326,106.778-3.934 c4.565,1.058,9.182-1.775,10.257-6.366C214.189,368.832,211.339,364.241,206.748,363.166z"/><path d="M206.748,311.966c-52.693-12.365-112.572,3.379-115.089,4.062c-4.548,1.22-7.253,5.897-6.033,10.453 c1.024,3.814,4.471,6.332,8.235,6.332c0.734,0,1.476-0.102,2.219-0.299c0.572-0.162,58.223-15.326,106.778-3.934 c4.565,1.067,9.182-1.775,10.257-6.366C214.189,317.632,211.339,313.041,206.748,311.966z"/></symbol><symbol id="technology" viewBox="0 0 503.607 503.607"><title>technology</title><g transform="translate(1 1)"> <g> <g> <path d="M469.033,116.401H266.165l59.34-95.685c2.518-4.197,1.679-9.233-2.518-11.751c-4.197-2.518-9.233-1.679-11.751,2.518 l-60.552,97.64l-68.707-98.48c-2.518-3.357-7.554-4.197-11.751-1.679c-3.357,2.518-4.197,7.554-1.679,11.751l66.757,95.685 H32.574C14.108,116.401-1,131.509-1,149.975v285.377c0,18.466,15.108,33.574,33.574,33.574h8.393v16.787 c0,5.036,3.357,8.393,8.393,8.393s8.393-3.357,8.393-8.393v-16.787h386.098v16.787c0,5.036,3.357,8.393,8.393,8.393 c5.036,0,8.393-3.357,8.393-8.393v-16.787h8.393c18.466,0,33.574-15.108,33.574-33.574V149.975 C502.607,131.509,487.498,116.401,469.033,116.401z M485.82,435.352c0,9.233-7.554,16.787-16.787,16.787H32.574 c-9.233,0-16.787-7.554-16.787-16.787V149.975c0-9.233,7.554-16.787,16.787-16.787h436.459c9.233,0,16.787,7.554,16.787,16.787 V435.352z"/> <path d="M317.951,149.975H82.934c-27.698,0-50.361,22.662-50.361,50.361v184.656c0,27.698,22.662,50.361,50.361,50.361h235.016 c27.698,0,50.361-22.662,50.361-50.361V200.335C368.311,172.637,345.649,149.975,317.951,149.975z M351.525,384.991 c0,18.466-15.108,33.574-33.574,33.574H82.934c-18.466,0-33.574-15.108-33.574-33.574V200.335 c0-18.466,15.108-33.574,33.574-33.574h235.016c18.466,0,33.574,15.108,33.574,33.574V384.991z"/> <path d="M460.639,191.942h-67.148c-5.036,0-8.393,3.357-8.393,8.393s3.357,8.393,8.393,8.393h67.148 c5.036,0,8.393-3.357,8.393-8.393S465.675,191.942,460.639,191.942z"/> <path d="M460.639,225.516h-67.148c-5.036,0-8.393,3.357-8.393,8.393s3.357,8.393,8.393,8.393h67.148 c5.036,0,8.393-3.357,8.393-8.393S465.675,225.516,460.639,225.516z"/> <path d="M460.639,259.089h-67.148c-5.036,0-8.393,3.357-8.393,8.393s3.357,8.393,8.393,8.393h67.148 c5.036,0,8.393-3.357,8.393-8.393S465.675,259.089,460.639,259.089z"/> <path d="M460.639,292.663h-67.148c-5.036,0-8.393,3.357-8.393,8.393v67.148c0,5.036,3.357,8.393,8.393,8.393h67.148 c5.036,0,8.393-3.357,8.393-8.393v-67.148C469.033,296.021,465.675,292.663,460.639,292.663z M452.246,359.811h-50.361V309.45 h50.361V359.811z"/> <path d="M102.239,186.066L68.666,219.64c-3.357,3.357-3.357,8.393,0,11.751c1.679,1.679,3.357,2.518,5.875,2.518 c2.518,0,4.197-0.839,5.875-2.518l33.574-33.574c3.357-3.357,3.357-8.393,0-11.751 C110.633,182.709,105.597,182.709,102.239,186.066z"/> <path d="M77.059,253.214l-8.393,8.393c-3.357,3.357-3.357,8.393,0,11.751c1.679,1.679,3.357,2.518,5.875,2.518 c2.518,0,4.197-0.839,5.875-2.518l8.393-8.393c3.357-3.357,3.357-8.393,0-11.751C85.452,249.857,80.416,249.857,77.059,253.214z"/> <path d="M152.6,177.673l-25.18,25.18c-3.357,3.357-3.357,8.393,0,11.751c1.679,1.679,3.357,2.518,5.875,2.518 c2.518,0,4.197-0.839,5.875-2.518l25.18-25.18c3.357-3.357,3.357-8.393,0-11.751S155.957,174.316,152.6,177.673z"/> <path d="M108.115,225.516c-5.036,0-8.393,3.357-8.393,8.393s3.357,8.393,8.393,8.393s8.393-3.357,8.393-8.393 S113.151,225.516,108.115,225.516z"/> </g> </g> </g></symbol></svg>