<svg xmlns="http://www.w3.org/2000/svg" style="display: none;"><symbol id="snowflakes" viewBox="0 0 451.2 451.2"><title>snowflakes</title><path d="M423.2,329.6l-32-18.4l32-11.2c4-1.6,6.4-5.6,4.8-10.4c-1.6-4-5.6-6.4-10.4-4.8l-45.6,16l-24-13.6l66.4-24 c4-1.6,6.4-6.4,4.8-10.4c-1.6-4-6.4-6.4-10.4-4.8l-79.2,28.8l-19.2-11.2l33.6-11.2c4-1.6,6.4-5.6,4.8-10.4 c-1.6-4-5.6-6.4-10.4-4.8l-46.4,16l-21.6-29.6l20.8-28.8l47.2,16.8c0.8,0,1.6,0.8,2.4,0.8c3.2,0,6.4-2.4,7.2-5.6 c1.6-4-0.8-8.8-4.8-10.4L308,185.6l19.2-11.2l80.8,30.4c0.8,0,1.6,0.8,3.2,0.8c3.2,0,6.4-1.6,7.2-4.8c1.6-4-0.8-8.8-4.8-10.4 l-68-25.6l23.2-13.6l48.8,17.6c0.8,0,1.6,0.8,2.4,0.8c3.2,0,6.4-2.4,7.2-5.6c2.4-4,0-8.8-4-10.4l-36-12.8l32.8-19.2 c4-2.4,4.8-7.2,3.2-11.2c-2.4-4-7.2-4.8-11.2-3.2l-29.6,17.6l6.4-32.8c0.8-4-1.6-8.8-6.4-9.6c-4-0.8-8.8,1.6-9.6,6.4l-8.8,46.4 l-24,13.6L352,80c0.8-4-2.4-8.8-6.4-9.6s-8.8,2.4-9.6,6.4l-14.4,84L302.4,172l6.4-34.4c0.8-4-1.6-8.8-6.4-9.6 c-4-0.8-8.8,2.4-9.6,6.4l-9.6,48h-0.8l-35.2,4l-13.6-32l37.6-32.8c3.2-3.2,4-8,0.8-11.2c-3.2-3.2-8-4-11.2-0.8l-27.2,24v-22.4 l65.6-54.4c3.2-3.2,4-8,0.8-11.2c-3.2-3.2-8-4-11.2-0.8l-55.2,45.6V63.2l37.6-32.8c3.2-3.2,4-8,0.8-11.2c-3.2-3.2-8-4-11.2-0.8 l-27.2,23.2V8c0-4.8-3.2-8-8-8s-8,3.2-8,8v33.6l-27.2-23.2c-3.2-3.2-8-2.4-11.2,0.8c-3.2,3.2-2.4,8,0.8,11.2l37.6,32v27.2 l-55.2-44.8c-3.2-3.2-8.8-2.4-11.2,0.8c-3.2,3.2-2.4,8.8,0.8,11.2l64.8,53.6v22.4l-27.2-23.2c-3.2-3.2-8-2.4-11.2,0.8 c-3.2,3.2-2.4,8,0.8,11.2l37.6,32l-14.4,32.8l-35.2-4l-8.8-49.6c-0.8-4-4.8-7.2-9.6-6.4c-4,0.8-7.2,4.8-6.4,9.6l6.4,36.8 l-19.2-11.2l-12-84.8c-0.8-4-4.8-7.2-8.8-6.4c-4,0.8-7.2,4.8-6.4,8.8l11.2,72l-24-13.6l-8.8-50.4c-0.8-4-4.8-7.2-9.6-6.4 c-4,0.8-7.2,4.8-6.4,9.6l6.4,36.8L40,108.8c-4-2.4-8.8-0.8-11.2,3.2c-2.4,4-0.8,8.8,3.2,11.2l30.4,17.6L29.6,152 c-4,1.6-6.4,5.6-4.8,10.4c0.8,2.4,3.2,4,7.2,4c0.8,0,1.6,0,2.4-0.8l46.4-16l23.2,13.6l-66.4,24c-4,1.6-6.4,6.4-4.8,10.4 c0.8,3.2,4,5.6,7.2,5.6c0.8,0,1.6,0,2.4-0.8l78.4-28.8l19.2,11.2L107.2,196c-4,1.6-6.4,5.6-4.8,10.4c0.8,3.2,4,5.6,7.2,5.6 c0.8,0,1.6,0,2.4-0.8l46.4-16h0.8L180,224l-20.8,28.8l-46.4-16c-4-1.6-8.8,0.8-10.4,4.8c-1.6,4,0.8,8.8,4.8,10.4l35.2,12.8 L123.2,276l-80.8-30.4c-4-1.6-8.8,0.8-10.4,4.8c-1.6,4,0.8,8.8,4.8,10.4l68,25.6L81.6,300l-48-17.6c-4-1.6-8.8,0.8-10.4,4.8 c-1.6,4,0.8,8.8,4.8,10.4l36,12.8l-34.4,20c-4,1.6-4.8,6.4-3.2,10.4c1.6,2.4,4,4,7.2,4c1.6,0,2.4,0,4-0.8l32-18.4l-6.4,33.6 c-0.8,4,1.6,8.8,6.4,9.6c0.8,0,0.8,0,1.6,0c4,0,7.2-2.4,8-6.4l8.8-47.2l24-13.6l-12,68.8c-0.8,4,2.4,8.8,6.4,9.6 c0.8,0,0.8,0,1.6,0c4,0,7.2-2.4,8-6.4l13.6-83.2l19.2-11.2l-6.4,34.4c-0.8,4,1.6,8.8,6.4,9.6c0.8,0,0.8,0,1.6,0c4,0,7.2-2.4,8-6.4 l9.6-48h0.8l35.2-4l14.4,32.8l-37.6,32.8c-3.2,3.2-4,8-0.8,11.2c1.6,1.6,4,2.4,6.4,2.4c1.6,0,4-0.8,5.6-1.6l27.2-24v22.4 l-65.6,54.4c-3.2,3.2-4,8-0.8,11.2c1.6,1.6,4,3.2,6.4,3.2c1.6,0,4-0.8,4.8-1.6l55.2-45.6v27.2L180,420.8c-3.2,3.2-4,8-0.8,11.2 c1.6,1.6,4,2.4,6.4,2.4c1.6,0,4-0.8,5.6-1.6l27.2-23.2v33.6c0,4.8,3.2,8,8,8s8-3.2,8-8v-33.6l27.2,23.2c1.6,1.6,3.2,1.6,5.6,1.6 c2.4,0,4.8-0.8,6.4-2.4c3.2-3.2,2.4-8-0.8-11.2l-37.6-32v-27.2l55.2,45.6c1.6,1.6,3.2,1.6,4.8,1.6c2.4,0,4.8-0.8,6.4-3.2 c3.2-3.2,2.4-8.8-0.8-11.2L233.6,340v-22.4l27.2,23.2c1.6,1.6,3.2,1.6,5.6,1.6c2.4,0,4.8-0.8,6.4-2.4c3.2-3.2,2.4-8-0.8-11.2 l-37.6-32l14.4-32.8l34.4,4l8.8,49.6c0.8,4,4,6.4,8,6.4c0.8,0,0.8,0,1.6,0c4-0.8,7.2-4.8,6.4-9.6l-6.4-36l19.2,11.2l13.6,84.8 c0.8,4,4,6.4,8,6.4c0.8,0,0.8,0,1.6,0c4-0.8,7.2-4.8,6.4-8.8l-11.2-72l23.2,13.6l8.8,50.4c0.8,4,4,6.4,8,6.4c0.8,0,0.8,0,1.6,0 c4-0.8,7.2-4.8,6.4-9.6l-6.4-36.8l34.4,20c1.6,0.8,2.4,0.8,4,0.8c2.4,0,5.6-1.6,7.2-4C428.8,336.8,427.2,332,423.2,329.6z M244,248c-3.2,0-6.4,1.6-8,4.8l-10.4,22.4l-10.4-22.4c-1.6-3.2-4-4.8-7.2-4.8h-0.8l-24.8,2.4l14.4-20c2.4-3.2,2.4-6.4,0-9.6 l-15.2-20l24.8,2.4c3.2,0,6.4-1.6,8-4.8l10.4-23.2l10.4,23.2c1.6,3.2,4.8,4.8,8,4.8l24.8-2.4l-14.4,20c-2.4,3.2-2.4,6.4,0,9.6 l15.2,20L244,248z"/></symbol><symbol id="sport" viewBox="0 0 447.459 447.459"><title>sport</title><path d="M385.1,148.907c-53.618-4.738-107.911-7.141-161.37-7.141c-53.46,0-107.753,2.402-161.371,7.141 c-2.245,0.198-4.188,1.637-5.034,3.727c-16.103,39.801-15.188,78.539,2.794,118.426c0.516,1.144,1.376,2.097,2.461,2.726 c23.799,13.79,49.852,24.406,77.436,31.554c0.504,0.131,1.011,0.193,1.509,0.193c2.666,0,5.1-1.79,5.802-4.489 c11.769-45.188,41.758-74.387,76.402-74.387s64.633,29.199,76.401,74.387c0.834,3.204,4.109,5.128,7.311,4.296 c27.581-7.146,53.633-17.762,77.436-31.554c1.085-0.629,1.946-1.582,2.461-2.726c17.983-39.887,18.897-78.625,2.794-118.426 C389.289,150.544,387.345,149.105,385.1,148.907z M67.117,160.537c16.76-1.446,33.585-2.638,50.424-3.623l-58.125,70.739 C56.014,205.3,58.579,183.087,67.117,160.537z M62.597,242.683l71.198-86.648c16.588-0.823,33.177-1.44,49.723-1.811 L86.131,272.756c-5.389-2.639-10.676-5.436-15.853-8.388C67.099,257.104,64.545,249.881,62.597,242.683z M137.35,292.194 c-13.78-3.849-27.132-8.609-39.967-14.23l101.887-124.01c8.168-0.112,16.326-0.188,24.46-0.188c31.599,0,63.491,0.857,95.36,2.532 l-56.832,69.171c-11.769-7.004-24.813-10.814-38.528-10.814C185.018,214.655,151.599,244.882,137.35,292.194z M272.14,232.345 l61.78-75.193c15.502,0.941,30.99,2.053,46.422,3.385c0.644,1.7,1.243,3.398,1.819,5.095l-82.656,100.617 C292.152,252.417,282.842,240.937,272.14,232.345z M305.156,278.275l81.009-98.612c2.497,10.855,3.594,21.662,3.286,32.476 l-61.055,74.325c-6.006,2.089-12.103,4.003-18.287,5.73C308.656,287.369,306.994,282.731,305.156,278.275z M377.182,264.368 c-8.325,4.747-16.938,9.086-25.798,13.018l35.501-43.217C384.844,244.183,381.615,254.235,377.182,264.368z"/><path d="M441.459,170.016h-18.116c-1.541-6.542-3.461-13.076-5.79-19.597c-5.657-15.842-20.196-27.001-37.041-28.429 c-104.035-8.817-209.533-8.817-313.567,0c-16.844,1.428-31.384,12.586-37.041,28.428c-2.329,6.521-4.249,13.055-5.79,19.598H6 c-3.313,0-6,2.687-6,6v71.058c0,3.313,2.687,6,6,6h19.645c3.342,12.291,8.053,24.558,14.161,36.777c0.5,1,1.269,1.841,2.221,2.427 c28.014,17.246,58.946,30.295,91.938,38.783c8.266,2.127,16.854,0.906,24.185-3.438c7.321-4.338,12.523-11.28,14.648-19.546 c8.458-32.899,28.926-55.002,50.932-55.002c22.006,0,42.474,22.104,50.932,55.002c2.125,8.266,7.328,15.208,14.648,19.546 c4.977,2.949,10.533,4.459,16.174,4.459c2.668,0,5.356-0.338,8.01-1.021c32.993-8.489,63.925-21.537,91.938-38.783 c0.952-0.586,1.722-1.427,2.221-2.427c6.108-12.219,10.819-24.486,14.161-36.777h19.645c3.313,0,6-2.687,6-6v-71.058 C447.459,172.703,444.773,170.016,441.459,170.016z M12,241.074v-59.058h9.729c-3.18,19.662-2.816,39.381,1.089,59.058H12z M397.677,282.955c-26.601,16.171-55.921,28.444-87.173,36.485c-5.155,1.326-10.51,0.566-15.076-2.14 c-4.568-2.707-7.816-7.044-9.145-12.211c-9.998-38.887-34.551-64.014-62.554-64.014s-52.557,25.127-62.554,64.014 c-1.329,5.167-4.576,9.504-9.145,12.211c-4.566,2.707-9.921,3.467-15.076,2.14c-31.251-8.041-60.571-20.313-87.173-36.485 c-20.897-42.684-23.785-85.91-8.576-128.5c4.08-11.426,14.582-19.475,26.753-20.507c103.361-8.759,208.178-8.759,311.54,0 c12.172,1.032,22.673,9.081,26.753,20.507C421.462,197.045,418.574,240.272,397.677,282.955z M435.459,241.074h-10.818 c3.905-19.677,4.27-39.396,1.089-59.058h9.729V241.074z"/></symbol><symbol id="sports-3" viewBox="0 0 512 512"><title>sports-3</title><g> <g> <path d="M71.579,243.028L277.303,37.303l-10.607-10.606l-205.72,205.72c-14.603-11.817-30.577-14.676-38.966-6.289 c-8.387,8.387-5.527,24.362,6.289,38.966l-17.602,17.603l10.607,10.606L38.906,275.7c8.932,7.227,18.375,11.11,26.283,11.11 c5.021,0,9.425-1.563,12.682-4.82c5.137-5.136,6.268-13.057,3.186-22.303C79.213,254.16,75.925,248.413,71.579,243.028z M67.265,271.383c-1.543,1.544-11.968,0.055-23.335-11.314c-11.367-11.368-12.858-21.79-11.314-23.334 c0.319-0.319,1.017-0.509,2.022-0.509c3.04,0,8.903,1.748,15.655,6.874l-5.656,5.656l10.607,10.606l5.644-5.644 c2.722,3.596,4.801,7.305,5.937,10.712C68.222,268.619,67.724,270.923,67.265,271.383z"/> </g> </g><g> <g> <path d="M295.579,451.028l205.724-205.725l-10.607-10.606l-205.72,205.72c-14.603-11.816-30.577-14.677-38.966-6.289 c-8.387,8.388-5.527,24.362,6.289,38.966l-17.602,17.603l10.607,10.606l17.603-17.603c8.932,7.227,18.375,11.11,26.283,11.11 c5.021,0,9.425-1.563,12.682-4.82c5.137-5.136,6.268-13.057,3.186-22.303C303.213,462.16,299.925,456.413,295.579,451.028z M291.265,479.383L291.265,479.383c-1.544,1.543-11.968,0.054-23.335-11.314s-12.858-21.79-11.314-23.334 c0.319-0.319,1.017-0.509,2.022-0.509c3.04,0,8.904,1.747,15.655,6.874l-5.656,5.656l10.607,10.606l5.644-5.644 c2.722,3.596,4.802,7.305,5.937,10.712C292.222,476.619,291.724,478.923,291.265,479.383z"/> </g> </g><g> <g> <path d="M411.93,11.57C404.469,4.109,394.55,0,383.999,0c-10.551,0-20.47,4.109-27.931,11.569L107.166,260.471 c-15.4,15.401-15.4,40.46,0,55.861c7.701,7.701,17.816,11.551,27.932,11.551c10.114,0,20.229-3.85,27.931-11.551L411.93,67.431 C427.33,52.03,427.33,26.97,411.93,11.57z M263.999,193.647L152.171,305.726c-9.551,9.551-25.095,9.554-34.648,0 c-9.552-9.553-9.552-25.096,0-34.648l146.476-146.726V193.647z M295.999,161.647l-17,17v-69.295l17-17V161.647z M401.041,56.824 l-90.042,89.824V77.352l55.427-55.177C371.053,17.548,377.33,15,383.874,15s12.759,2.548,17.386,7.176 C410.813,31.729,410.594,47.272,401.041,56.824z"/> </g> </g><g> <g> <path d="M404.832,195.668c-15.401-15.401-40.459-15.402-55.862,0L100.068,444.569c-15.4,15.401-15.4,40.46,0,55.861 c7.461,7.461,17.38,11.57,27.931,11.57s20.47-4.109,27.931-11.569l248.902-248.902 C420.232,236.128,420.232,211.069,404.832,195.668z M256.999,377.648L145.072,489.824c-4.627,4.628-10.654,7.176-17.198,7.176 c-6.544,0-12.634-2.548-17.261-7.176c-9.553-9.553-9.772-25.096-0.219-34.648l146.605-146.823V377.648z M288.999,345.648l-17,17 v-69.295l17-17V345.648z M393.975,240.922l-89.976,89.726v-69.295l55.328-55.078c4.776-4.777,11.174-7.165,17.449-7.165 c6.272,0,12.485,2.389,17.261,7.165C403.59,215.827,403.527,231.37,393.975,240.922z"/> </g> </g><g> <g> <rect x="370.363" y="34.837" transform="matrix(0.7071 -0.7071 0.7071 0.7071 80.8832 279.9436)" width="16" height="15"/> </g> </g><g> <g> <rect x="365.677" y="222.152" transform="matrix(0.7071 -0.7071 0.7071 0.7071 -52.9415 331.4929)" width="16" height="15"/> </g> </g></symbol><symbol id="transport" viewBox="0 0 512 512"><title>transport</title><g transform="translate(1 1)"> <g> <g> <path d="M279.747,212.333h-49.493c-9.387,0-17.92,7.68-17.92,17.92v100.693c0,9.387,8.533,17.92,17.92,17.92h49.493 c9.387,0,17.92-8.533,17.92-17.92V230.253C297.667,220.867,289.987,212.333,279.747,212.333z M280.6,330.947 c0,0,0,0.853-0.853,0.853h-49.493c0,0-0.853,0-0.853-0.853V230.253c0,0,0-0.853,0.853-0.853h49.493c0,0,0.853,0,0.853,0.853 V330.947z"/> <path d="M246.467,383h-25.6c-5.12,0-8.533,3.413-8.533,8.533c0,5.12,3.413,8.533,8.533,8.533h17.067v17.067 c0,5.12,3.413,8.533,8.533,8.533s8.533-3.413,8.533-8.533v-25.6C255,386.413,251.587,383,246.467,383z"/> <path d="M466.627,217.453l-1.259-2.517c-10.543-25.181-25.182-48.882-43.968-70.016c-5.12-5.973-12.8-9.387-21.333-9.387H255 V79.719c5.029,2.927,10.859,4.615,17.067,4.615c18.773,0,34.133-15.36,34.133-34.133s-15.36-34.133-34.133-34.133 c-6.208,0-12.037,1.688-17.067,4.615V7.533C255,2.413,251.587-1,246.467-1s-8.533,3.413-8.533,8.533v13.148 c-5.029-2.927-10.859-4.615-17.067-4.615c-18.773,0-34.133,15.36-34.133,34.133s15.36,34.133,34.133,34.133 c6.208,0,12.037-1.688,17.067-4.615v55.815H110.787c-8.533,0-16.213,3.413-21.333,9.387 c-18.035,20.463-32.263,43.251-42.701,67.413h-0.819l-2.56,5.12c-15.36,39.253-21.333,81.92-17.92,123.733l0.853,7.68h0.658 c6.427,55.794,30.143,110.119,71.022,153.6c5.12,5.12,12.8,8.533,20.48,8.533H178.2h153.6h59.733 c7.68,0,15.36-3.413,21.333-8.533c44.235-47.452,68.373-107.411,72.254-168C488.066,294.052,481.18,253.837,466.627,217.453z M272.067,33.133c9.387,0,17.067,7.68,17.067,17.067s-7.68,17.067-17.067,17.067C262.68,67.267,255,59.587,255,50.2 S262.68,33.133,272.067,33.133z M220.867,67.267c-9.387,0-17.067-7.68-17.067-17.067s7.68-17.067,17.067-17.067 c9.387,0,17.067,7.68,17.067,17.067S230.253,67.267,220.867,67.267z M467.963,331.8H375.32l-0.853-0.853L375.32,229.4h77.31 C464.906,262.037,469.993,297.023,467.963,331.8z M57.88,229.4l77.653,0.853V331.8H42.52 C39.96,296.813,45.08,261.827,57.88,229.4z M195.267,493.933V196.12c0,0,0-0.853,0.853-0.853h117.76c0,0,0.853,0,0.853,0.853 v297.813H195.267z M400.067,490.52c-2.56,2.56-5.12,3.413-8.533,3.413H331.8V196.12c0-9.387-7.68-17.92-17.92-17.92H196.12 c-9.387,0-17.92,7.68-17.92,17.92v297.813h-59.733c-3.413,0-6.827-0.853-8.533-3.413C72.23,450.254,50.087,400.251,43.61,348.867 h91.07c10.24,0,17.92-7.68,17.92-17.067V230.253c0-10.24-8.533-17.92-17.92-17.92H64.564 c9.392-20.116,21.659-39.109,36.836-56.32c1.707-1.707,5.12-3.413,8.533-3.413v0h136.532c0,0,0.001,0,0.001,0s0.001,0,0.001,0 h153.599c3.413,0,6.827,0.853,8.533,3.413c15.177,17.211,27.443,36.205,36.836,56.32H375.32c-10.24,0-17.92,8.533-17.92,17.92 v100.693c0,10.24,8.533,17.92,17.92,17.92h91.07C459.913,400.251,437.77,450.254,400.067,490.52z"/> <path d="M169.667,50.2c0-5.12-3.413-8.533-8.533-8.533H7.533C2.413,41.667-1,45.08-1,50.2s3.413,8.533,8.533,8.533h153.6 C166.253,58.733,169.667,55.32,169.667,50.2z"/> <path d="M502.467,41.667H340.333c-5.12,0-8.533,3.413-8.533,8.533s3.413,8.533,8.533,8.533h162.133 c5.12,0,8.533-3.413,8.533-8.533S507.587,41.667,502.467,41.667z"/> </g> </g> </g></symbol><symbol id="sports-2" viewBox="0 0 512 512"><title>sports-2</title><g> <g> <path d="M488.328,135.486c12.962,0,23.503-10.541,23.503-23.503c0-10.891-7.441-20.072-17.502-22.723V54.686 c0-4.141-3.36-7.501-7.501-7.501c-4.151,0-7.501,3.36-7.501,7.501V88.48h-26.003V28.003c0-7.171,5.831-13.002,13.002-13.002 c6.621,0,12.171,4.961,12.922,11.531c0.46,4.12,4.18,7.071,8.291,6.611C502.258,31.465,491.116,0,466.326,0 c-15.442,0-28.003,12.561-28.003,28.003V89.26c-10.061,2.65-17.502,11.831-17.502,22.723c0,12.962,10.541,23.503,23.503,23.503 h14.502c0,11.294,0,302.871,0,316.037h-18.171c-4.143,0-7.501,3.357-7.501,7.501s3.357,7.501,7.501,7.501h18.171v37.974 c0,4.141,3.35,7.501,7.501,7.501c4.141,0,7.501-3.36,7.501-7.501v-37.974h18.167c4.143,0,7.501-3.357,7.501-7.501 s-3.357-7.501-7.501-7.501h-18.167c0-13.166,0-304.743,0-316.037H488.328z M444.323,120.484c-9.57,0-11.814-13.506-2.7-16.562 c1.852-0.632-0.831-0.44,46.705-0.44c4.689,0,8.501,3.814,8.501,8.501c0,4.691-3.82,8.501-8.501,8.501 C472.589,120.484,460.113,120.484,444.323,120.484z"/> </g> </g><g> <g> <path d="M67.677,135.486c12.961,0,23.503-10.541,23.503-23.503c0-10.891-7.441-20.072-17.502-22.723V28.003 C73.678,12.561,61.116,0,45.674,0C20.884,0,9.742,31.465,24.462,33.144c4.11,0.46,7.831-2.49,8.291-6.611 c0.75-6.571,6.301-11.531,12.922-11.531c7.171,0,13.002,5.831,13.002,13.002V88.48H32.673V54.686c0-4.141-3.35-7.501-7.501-7.501 c-4.141,0-7.501,3.36-7.501,7.501V89.26C7.61,91.911,0.169,101.092,0.169,111.983c0,12.962,10.541,23.503,23.503,23.503h14.502 c0,11.294,0,302.871,0,316.037H20.006c-4.143,0-7.501,3.357-7.501,7.501s3.357,7.501,7.501,7.501h18.167v37.974 c0,4.141,3.36,7.501,7.501,7.501c4.15,0,7.501-3.36,7.501-7.501v-37.974h18.171c4.143,0,7.501-3.357,7.501-7.501 s-3.357-7.501-7.501-7.501H53.175c0-13.166,0-304.743,0-316.037H67.677z M23.672,120.484c-4.681,0-8.501-3.81-8.501-8.501 c0-4.687,3.812-8.501,8.501-8.501c47.537,0,44.853-0.192,46.706,0.44c9.113,3.056,6.87,16.562-2.7,16.562 C51.887,120.484,39.411,120.484,23.672,120.484z"/> </g> </g><g> <g> <path d="M222.177,213.985c9.869-94.551,15.582-148.92,15.582-149.538c0-35.464-28.853-64.318-64.328-64.318 c-35.464,0-64.318,28.853-64.318,64.318c0,0.617,5.709,55.07,15.572,149.538c2.84,27.143,2.86,54.676,0.05,81.83 c-16.235,157.33-15.622,150.927-15.622,151.648c0,35.464,28.853,64.318,64.318,64.318c35.474,0,64.328-28.853,64.328-64.318 c0-0.26-0.02-0.52-0.04-0.77C225.907,314.537,215.39,279.07,222.177,213.985z M124.116,64.078 c0.21-27.023,22.253-48.946,49.316-48.946c27.073,0,49.116,21.923,49.316,48.946l-3.06,29.363c-12.194,0-81.841,0-92.501,0 L124.116,64.078z M173.431,496.778c-27.063,0-49.106-21.923-49.316-48.946l3.03-29.353h19.032c4.141,0,7.501-3.36,7.501-7.501 c0-4.151-3.36-7.501-7.501-7.501h-17.482c7.607-89.382,17.675-126.466,10.911-191.052l-10.861-103.982c11.396,0,78.359,0,89.37,0 l-10.851,103.982c-6.759,64.539,3.307,101.752,10.901,191.052h-42.985c-4.141,0-7.501,3.35-7.501,7.501 c0,4.141,3.36,7.501,7.501,7.501h44.535l3.03,29.353C222.547,474.856,200.504,496.778,173.431,496.778z"/> </g> </g><g> <g> <path d="M386.986,295.816c-6.727-64.995,3.868-101.031,15.582-230.587c0.02-0.261,0.04-0.521,0.04-0.781 c0-35.464-28.853-64.318-64.318-64.318c-39.363,0-66.594,35.141-64.288,65.098c15.988,153.219,21.075,177.512,15.582,230.588 c-16.235,157.33-15.622,150.927-15.622,151.648c0,35.464,28.853,64.318,64.328,64.318c35.464,0,64.318-28.853,64.318-64.318 c0-0.26-0.02-0.52-0.04-0.77L386.986,295.816z M288.975,64.078c0.2-27.023,22.243-48.946,49.316-48.946 c27.063,0,49.106,21.923,49.316,48.946l-3.07,29.363c-12.046,0-81.559,0-92.501,0L288.975,64.078z M304.457,212.425 l-10.851-103.982c11.451,0,78.454,0,89.37,0c-7.525,87.515-17.58,124.341-10.911,188.922l10.961,106.112 c-8.561,0-78.757,0-89.47,0C301.153,314.133,311.219,277.005,304.457,212.425z M338.291,496.778 c-27.073,0-49.116-21.923-49.316-48.946l3.03-29.353c11.029,0,81.416,0,92.571,0l3.03,29.353 C387.396,474.856,365.354,496.778,338.291,496.778z"/> </g> </g></symbol><symbol id="sports-1" viewBox="0 0 512.244 512.244"><title>sports-1</title><g transform="translate(1 1)"> <g> <g> <path d="M67.388,451.51h-8.533v-68.267c5.12,0,8.533-3.413,8.533-8.533s-3.413-8.533-8.533-8.533V297.91 c5.12,0,8.533-3.413,8.533-8.533s-3.413-8.533-8.533-8.533V195.51h8.533c5.12,0,8.533-3.413,8.533-8.533V24.844 c0-14.507-11.093-25.6-25.6-25.6c-14.507,0-25.6,11.093-25.6,25.6v162.133c0,5.12,3.413,8.533,8.533,8.533h8.533v85.333 c-5.12,0-8.533,3.413-8.533,8.533s3.413,8.533,8.533,8.533v68.267c-5.12,0-8.533,3.413-8.533,8.533s3.413,8.533,8.533,8.533 v68.267h-8.533c-9.387,0-17.067,7.68-17.067,17.067v8.533c0,9.387,7.68,17.067,17.067,17.067h8.533v8.533 c0,5.12,3.413,8.533,8.533,8.533c5.12,0,8.533-3.413,8.533-8.533v-8.533h8.533c9.387,0,17.067-7.68,17.067-17.067v-8.533 C84.455,459.19,76.775,451.51,67.388,451.51z M41.788,178.444V164.79l17.067-17.067v30.72H41.788z M41.788,122.124l17.067-17.067 v18.773l-17.067,17.067V122.124z M50.322,16.31c5.12,0,8.533,3.413,8.533,8.533v56.32L41.788,98.23V24.844 C41.788,19.724,45.202,16.31,50.322,16.31z M67.388,477.11H33.255v-8.533h34.133V477.11z"/> <path d="M476.988,451.51h-8.533v-68.267c5.12,0,8.533-3.413,8.533-8.533s-3.413-8.533-8.533-8.533V297.91 c5.12,0,8.533-3.413,8.533-8.533s-3.413-8.533-8.533-8.533V195.51h8.533c5.12,0,8.533-3.413,8.533-8.533V24.844 c0-14.507-11.093-25.6-25.6-25.6c-14.507,0-25.6,11.093-25.6,25.6v162.133c0,5.12,3.413,8.533,8.533,8.533h8.533v85.333 c-5.12,0-8.533,3.413-8.533,8.533s3.413,8.533,8.533,8.533v68.267c-5.12,0-8.533,3.413-8.533,8.533s3.413,8.533,8.533,8.533 v68.267h-8.533c-9.387,0-17.067,7.68-17.067,17.067v8.533c0,9.387,7.68,17.067,17.067,17.067h8.533v8.533 c0,5.12,3.413,8.533,8.533,8.533s8.533-3.413,8.533-8.533v-8.533h8.533c9.387,0,17.067-7.68,17.067-17.067v-8.533 C494.055,459.19,486.375,451.51,476.988,451.51z M451.388,178.444V164.79l17.067-17.067v30.72H451.388z M451.388,122.124 l17.067-17.067v18.773l-17.067,17.067V122.124z M459.922,16.31c5.12,0,8.533,3.413,8.533,8.533v56.32L451.388,98.23V24.844 C451.388,19.724,454.802,16.31,459.922,16.31z M476.988,477.11h-34.133v-8.533h34.133V477.11z"/> <path d="M279.015,407.137l27.307,63.147c4.267,9.387,13.653,15.36,23.893,15.36c3.413,0,6.827-0.853,9.387-2.56 c4.267-1.707,5.973-6.827,4.267-11.093s-6.827-5.973-11.093-4.267s-9.387,0-11.093-4.267l-27.307-63.147 c-1.707-4.267-6.827-5.973-11.093-4.267C279.015,397.75,277.308,402.87,279.015,407.137z"/> <path d="M376.295,3.51c-18.188-8.214-37.99-4.729-52.193,6.57c-0.603,0.307-1.138,0.681-1.567,1.109 c-5.973,5.12-11.093,11.093-13.653,17.92L299.1,51.935c-0.498,0.57-0.95,1.199-1.311,1.922L279.015,98.23 c-0.182,0.546-0.317,1.091-0.421,1.629l-24.25,55.962l-43.011-98.984c-0.087-0.791-0.278-1.516-0.584-2.127l-10.24-23.893 c-0.866-1.732-1.789-3.408-2.778-5.03c-5.537-10.672-14.873-18.585-26.235-23.13c-12.8-5.12-26.453-4.267-39.253,0.853 s-22.187,15.36-27.307,28.16c-5.12,12.8-4.267,26.453,0.853,39.253l24.189,56.073c0.095,0.722,0.275,1.388,0.558,1.953 l18.773,43.52c0.26,1.042,0.761,1.922,1.426,2.646l47.516,110.151l-66.862,154.297c-11.947,26.453,0.853,56.32,26.453,67.413 c6.827,2.56,13.653,4.267,20.48,4.267s12.8-0.853,18.773-3.413c12.8-5.12,23.04-14.507,28.16-27.307l29.125-67.212l28.901,67.212 c8.533,18.773,27.307,30.72,46.933,30.72c6.827,0,13.653-1.707,19.627-4.267c12.8-5.12,22.187-15.36,27.307-28.16 c5.12-12.8,4.267-26.453-0.853-39.253l-66.396-154.372l92.85-214.269c5.973-12.8,5.973-26.453,0.853-39.253 C398.482,18.87,389.095,8.63,376.295,3.51z M207.335,263.777l-22.134-51.281l36.2-89.475l23.481,54.569L207.335,263.777z M183.442,36.79c0,0.853,0.853,0.853,0.853,1.707l8.533,20.48l-35.717,88.441l-9.478-21.96L183.442,36.79z M166.514,169.202 l36.295-88.341l8.793,20.783l-35.712,89.28L166.514,169.202z M139.068,18.87c4.267-1.707,9.387-2.56,13.653-2.56 s8.533,0.853,12.8,2.56c1.945,0.778,3.796,1.696,5.543,2.74l-32.967,81.757l-16.95-39.27 C113.468,46.177,122.002,26.55,139.068,18.87z M303.223,85.295l2.383-5.499l35.703,88.407l-9.387,22.187l-34.987-88.747 L303.223,85.295z M350.695,144.31l-34.973-87.859l8.52-19.661c0.33-0.706,0.685-1.391,1.05-2.066l34.79,87.399L350.695,144.31z M209.895,472.844c-3.413,7.68-10.24,14.507-18.773,17.92c-8.533,3.413-17.92,3.413-26.453,0 c-17.067-6.827-25.6-27.307-17.92-44.373l67.99-156.899c0.429-0.569,0.81-1.18,1.13-1.821l30.719-71.678l39.937-92.162 l35.813,89.532l-28.334,65.385c-0.49,0.61-0.938,1.302-1.335,2.096l-38.397,89.594L209.895,472.844z M361.788,445.537 c7.68,17.92-0.853,37.547-17.92,45.227c-17.92,7.68-37.547-0.853-45.227-17.92l-34.958-81.001l36.837-85.009L361.788,445.537z M387.388,63.244l-16.58,38.262L338.673,20.84c5.098-2.93,10.94-4.53,17.142-4.53c4.267,0,8.533,0.853,13.653,2.56 C386.535,25.697,395.068,46.177,387.388,63.244z"/> <path d="M261.095,334.604l23.893-54.613c2.56-5.973,2.56-13.653,0-19.627c-2.56-5.973-7.68-11.093-13.653-13.653 s-13.653-2.56-19.627,0s-11.093,7.68-13.653,13.653l-23.893,54.613c-3.413,8.533,0.853,18.773,9.387,22.187l15.36,6.827 c2.56,0.853,4.267,1.707,6.827,1.707s4.267-0.853,5.973-1.707C255.975,342.284,259.388,338.87,261.095,334.604z M230.375,320.95 l23.893-54.613c0.853-3.413,4.267-5.12,7.68-5.12c0.853,0,1.707,0.853,3.413,0.853c1.707,0.853,3.413,2.56,4.267,4.267 c0.853,2.56,0.853,5.12,0,6.827l-23.893,54.613L230.375,320.95z"/> <path d="M224.402,396.897c-4.267-1.707-9.387,0-11.093,4.267l-27.307,63.147c-1.707,4.267-6.827,5.973-11.093,4.267 s-9.387,0-11.093,4.267s0,9.387,4.267,11.093c3.413,0.853,6.827,1.707,10.24,1.707c10.24,0,19.627-5.973,23.04-14.507 l27.307-63.147C230.375,403.724,228.668,398.604,224.402,396.897z"/> </g> </g> </g></symbol><symbol id="mountain-4" viewBox="0 0 512 512"><title>mountain-4</title><g> <g> <path d="M511.693,440.129c-14.213-48.175-29.647-86.776-45.876-114.732c-5.636-9.713-11.405-18.165-17.292-25.369 c20.116-16.085,31.904-40.341,31.904-66.427c0-10.454-1.871-20.656-5.563-30.325c-1.478-3.871-5.817-5.809-9.682-4.332 c-3.87,1.478-5.81,5.812-4.332,9.682c3.036,7.954,4.576,16.357,4.576,24.975c0,21.825-10.02,42.095-27.072,55.34 c-13.615-13.047-27.805-19.63-42.438-19.63c-4.136,0-8.235,0.546-12.296,1.597c-9.972-34.81-20.434-65.772-31.305-92.675 c12.266-9.537,27.337-14.752,42.991-14.752c19.285,0,37.254,7.661,50.599,21.572c1.473,1.536,3.441,2.308,5.413,2.308 c1.867,0,3.737-0.693,5.191-2.087c2.988-2.868,3.088-7.615,0.22-10.604c-16.199-16.888-38.014-26.188-61.423-26.188 c-17.646,0-34.681,5.461-48.948,15.508c-7.399-17.074-14.974-32.307-22.704-45.622c-26.672-45.969-55.558-69.277-85.856-69.277 c-36.465,0-70.797,33.778-102.041,100.397c-6.947,14.825-13.791,31.369-20.386,49.253c-1.195-0.187-2.418-0.286-3.664-0.286 c-12.998,0-23.572,10.574-23.572,23.572c0,8.912,4.972,16.683,12.287,20.689c-1.938,6.165-3.877,12.538-5.876,19.313 c-1.172,3.973,1.099,8.144,5.071,9.315c0.708,0.209,1.423,0.309,2.125,0.309c3.239,0,6.228-2.115,7.19-5.38 c2.179-7.386,4.286-14.286,6.396-20.953c11.285-1.747,19.951-11.527,19.951-23.293c0-6.29-2.481-12.008-6.51-16.239 c4.057-11.087,8.205-21.652,12.414-31.591c5.772,10.859,14.952,16.941,26.419,16.941c17.232,0,23.263-16.813,28.108-30.324 c5.227-14.572,9.053-23.42,18.106-23.42c6.48,0,8.867,5.449,12.752,21.822c3.938,16.599,9.331,39.331,35.239,39.331 c23.179,0,27.715-20.032,31.359-36.128c3.885-17.156,7.122-28.416,20.119-31.942c7.829,14.004,15.506,30.077,23.002,48.164 c0.067,0.178,0.136,0.355,0.218,0.529c11.514,27.852,22.602,60.436,33.164,97.497c-20.002,11.405-38.966,36.049-56.622,73.711 c-5.318,11.345-10.597,24.023-15.688,37.685c-1.446,3.881,0.528,8.2,4.409,9.646c3.881,1.445,8.2-0.528,9.647-4.409 c2.479-6.652,5-13.058,7.547-19.175c4.898,7.512,12.095,11.673,20.887,11.673c14.828,0,19.844-13.985,23.874-25.223 c4.317-12.038,7.012-17.709,13.044-17.709c3.905,0,5.616,3.193,8.719,16.271c3.077,12.974,7.729,32.58,29.618,32.58 c19.721,0,23.651-17.36,26.521-30.036c2.848-12.578,5.227-21.008,13.89-24.03c13.586,24.574,26.643,57.17,38.894,97.101h-56.453 c-1.457-11.609-11.383-20.622-23.381-20.622c-11.997,0-21.923,9.012-23.38,20.622h-93.761c1.455-4.741,2.918-9.365,4.373-13.822 c1.285-3.938-0.864-8.172-4.803-9.458c-3.939-1.285-8.172,0.866-9.457,4.802c-1.93,5.911-3.869,12.109-5.789,18.478h-58.98 v-24.426h52.812c3.033,0,5.769-1.827,6.929-4.63c1.161-2.803,0.52-6.028-1.625-8.173l-33.844-33.844h21.932 c3.033,0,5.769-1.827,6.929-4.63c1.161-2.803,0.52-6.028-1.625-8.173l-37.009-37.008h13.502c3.033,0,5.769-1.827,6.929-4.63 c1.161-2.803,0.52-6.028-1.625-8.173l-50.999-51c-1.407-1.407-3.314-2.197-5.304-2.197c-1.99,0-3.896,0.79-5.304,2.197l-51,51 c-2.145,2.145-2.786,5.371-1.625,8.173c1.16,2.803,3.896,4.63,6.929,4.63h13.503l-37.009,37.008 c-2.145,2.145-2.786,5.371-1.625,8.173c1.16,2.803,3.896,4.63,6.929,4.63h21.932l-33.844,33.844 c-1.544,1.544-2.294,3.648-2.168,5.751l-12.162-12.161h11.922c3.033,0,5.769-1.827,6.929-4.63c1.161-2.803,0.52-6.028-1.625-8.173 l-24.556-24.555h5.601c3.033,0,5.769-1.827,6.929-4.63c1.161-2.803,0.52-6.028-1.625-8.173l-15.032-15.032 c2.667-10.82,5.275-20.944,7.941-30.822c1.08-3.999-1.286-8.116-5.285-9.196c-4.001-1.08-8.116,1.286-9.195,5.286 c-1.962,7.265-3.892,14.662-5.834,22.359l-10.847-10.846c-2.93-2.929-7.678-2.929-10.607,0l-38.249,38.249 c-2.145,2.145-2.786,5.371-1.625,8.173c1.16,2.803,3.896,4.63,6.929,4.63h5.6L7.152,378.309c-2.145,2.145-2.786,5.371-1.625,8.173 c1.16,2.803,3.896,4.63,6.929,4.63h11.922L2.196,413.293c-2.145,2.145-2.786,5.371-1.625,8.173c1.16,2.803,3.896,4.63,6.929,4.63 h37.74v39.815c0,4.142,3.357,7.5,7.5,7.5h23.24c4.143,0,7.5-3.358,7.5-7.5v-16.16h93.31v16.16c0,4.142,3.357,7.5,7.5,7.5h30.99 c4.143,0,7.5-3.358,7.5-7.5v-16.16h171.55c4.118,6.894,11.652,11.522,20.248,11.522c8.597,0,16.131-4.628,20.249-11.522H504.5 c2.365,0,4.591-1.115,6.007-3.009C511.923,444.848,512.362,442.397,511.693,440.129z M111.708,230.599 c-4.727,0-8.572-3.845-8.572-8.572s3.846-8.572,8.572-8.572s8.572,3.845,8.572,8.572S116.435,230.599,111.708,230.599z M278.538,159.106c-4.017,17.739-6.499,24.441-16.729,24.441c-12.665,0-16.162-8.901-20.645-27.793 c-3.525-14.863-7.914-33.359-27.347-33.359c-20.263,0-26.896,18.495-32.226,33.356c-4.55,12.686-7.762,20.388-13.989,20.388 c-11.743,0-15.865-13.106-17.311-22.278c28.268-59.557,57.704-89.77,87.509-89.77c22.778,0,45.517,17.891,67.677,53.187 C286.359,124.642,281.907,144.225,278.538,159.106z M426.999,358.368c-3.27,14.438-5.118,18.349-11.893,18.349 c-9.083,0-11.553-6.412-15.023-21.042c-2.784-11.736-6.597-27.809-23.313-27.809c-17.248,0-22.979,15.979-27.163,27.645 c-3.866,10.781-6.076,15.287-9.755,15.287c-8.094,0-11.128-9.266-12.264-16.06c21.945-46.076,45.549-70.427,68.332-70.427 c11.947,0,23.932,6.434,35.826,19.183c0.123,0.149,0.255,0.286,0.387,0.424c5.227,5.665,10.437,12.545,15.616,20.642 C433.184,331.113,429.676,346.541,426.999,358.368z M68.481,458.412h-8.24v-32.315h8.24V458.412z M25.607,411.097l22.182-22.182 c2.144-2.145,2.785-5.371,1.624-8.173c-1.16-2.803-3.896-4.63-6.929-4.63H30.563l24.556-24.555 c2.145-2.145,2.786-5.371,1.625-8.173c-1.16-2.803-3.896-4.63-6.929-4.63h-5.6l20.143-20.143l20.144,20.143H78.9 c-3.033,0-5.769,1.827-6.929,4.63c-1.161,2.803-0.52,6.028,1.625,8.173l24.556,24.555H86.231c-3.033,0-5.769,1.827-6.929,4.63 c-1.161,2.803-0.52,6.028,1.625,8.173l22.183,22.182H25.607z M176.791,434.75h-93.31v-8.655h37.735 c3.033,0,5.769-1.827,6.929-4.63c1.161-2.803,0.52-6.028-1.625-8.173l-3.002-3.002c0.152,0.009,0.3,0.034,0.454,0.034h52.819 V434.75z M207.78,458.412h-15.99v-48.086h15.99V458.412z M215.357,395.324c-0.026,0-0.051-0.004-0.077-0.004 s-0.051,0.004-0.077,0.004h-30.835c-0.026,0-0.051-0.004-0.077-0.004s-0.051,0.004-0.077,0.004h-42.135l33.842-33.844 c2.145-2.145,2.786-5.371,1.625-8.173c-1.16-2.803-3.896-4.63-6.929-4.63h-21.932l37.009-37.008 c2.145-2.145,2.786-5.371,1.625-8.173c-1.16-2.803-3.896-4.63-6.929-4.63h-13.503l32.894-32.893l32.893,32.893h-13.502 c-3.033,0-5.769,1.827-6.929,4.63c-1.161,2.803-0.52,6.028,1.625,8.173l37.009,37.008h-21.932c-3.033,0-5.769,1.827-6.929,4.63 c-1.161,2.803-0.52,6.028,1.625,8.173l33.844,33.844H215.357z M414.578,446.272c-4.727,0-8.571-3.845-8.571-8.572 s3.845-8.572,8.571-8.572s8.572,3.845,8.572,8.572S419.305,446.272,414.578,446.272z"/> </g> </g><g> <g> <path d="M443.256,38.59c-12.998,0-23.572,10.575-23.572,23.572s10.574,23.572,23.572,23.572c12.997,0,23.571-10.574,23.571-23.572 S456.253,38.59,443.256,38.59z M443.256,70.734c-4.726,0-8.572-3.845-8.572-8.572s3.845-8.572,8.572-8.572 c4.727,0,8.571,3.846,8.571,8.572C451.827,66.887,447.982,70.734,443.256,70.734z"/> </g> </g><g> <g> <path d="M276.975,220.58c-12.997,0-23.571,10.574-23.571,23.572c0,12.998,10.574,23.572,23.571,23.572 c12.998,0,23.572-10.574,23.572-23.572C300.547,231.153,289.973,220.58,276.975,220.58z M276.975,252.724 c-4.726,0-8.571-3.845-8.571-8.572s3.844-8.572,8.571-8.572c4.727,0,8.572,3.845,8.572,8.572S281.701,252.724,276.975,252.724z"/> </g> </g><g> <g> <path d="M98.975,54.662c-12.997,0-23.571,10.575-23.571,23.572c0,12.997,10.574,23.572,23.571,23.572 c12.998,0,23.572-10.574,23.572-23.572C122.547,65.236,111.973,54.662,98.975,54.662z M98.975,86.806 c-4.726,0-8.571-3.845-8.571-8.572c0-4.727,3.844-8.572,8.571-8.572c4.727,0,8.572,3.846,8.572,8.572 C107.547,82.96,103.701,86.806,98.975,86.806z"/> </g> </g></symbol><symbol id="mountain-3" viewBox="0 0 512 512"><title>mountain-3</title><g> <g> <path d="M503.983,448.935h-12.148l-41.897-83.794c-1.954-3.909-6.848-5.539-10.756-3.585c-3.907,1.953-5.538,6.848-3.585,10.755 l38.312,76.624h-213.49l60.484-120.969l6.387,6.387c3.088,3.087,8.251,3.087,11.338,0l11.433-11.434l11.433,11.434 c3.132,3.131,8.207,3.131,11.338,0l11.433-11.434l11.433,11.434c3.089,3.088,8.249,3.088,11.338,0l6.388-6.387l11.06,22.119 c1.98,3.96,6.794,5.567,10.756,3.585c3.959-1.98,5.565-6.795,3.585-10.755l-64.491-128.98c-2.897-5.793-11.444-5.793-14.34,0 l-9.932,19.863l-35.644-71.288c-0.006-0.012-0.012-0.023-0.018-0.035L263.167,60.014c-2.897-5.793-11.444-5.793-14.34,0 L197.599,162.47c-0.009,0.017-0.017,0.034-0.026,0.051l-69.841,139.686l-9.932-19.864c-2.897-5.793-11.444-5.793-14.34,0 L20.165,448.935H8.017c-4.428,0-8.017,3.589-8.017,8.017s3.588,8.017,8.017,8.017h478.848c0.007,0,0.015,0.001,0.022,0.001 c0.01,0,0.018-0.001,0.028-0.001h17.068c4.428,0,8.017-3.589,8.017-8.017S508.412,448.935,503.983,448.935z M367.165,235.446 l38.703,77.404l-4.498,4.498l-11.433-11.434c-3.132-3.131-8.207-3.131-11.338,0l-11.434,11.434l-11.433-11.434 c-3.132-3.131-8.207-3.131-11.338,0l-11.434,11.433l-4.498-4.498L367.165,235.446z M256,81.525l41.553,83.104l-7.349,7.349 l-11.433-11.434c-3.132-3.131-8.207-3.131-11.338,0L256,171.978l-11.433-11.434c-3.132-3.131-8.207-3.131-11.338,0l-11.434,11.434 l-7.348-7.349L256,81.525z M110.63,303.855l35.852,71.703l-1.647,1.647l-11.433-11.434c-3.132-3.131-8.207-3.131-11.338,0 l-11.434,11.434l-11.433-11.434c-3.132-3.131-8.207-3.131-11.338,0l-11.434,11.433l-1.647-1.647L110.63,303.855z M38.09,448.935 l29.131-58.26l3.537,3.537c3.088,3.087,8.251,3.087,11.338,0l11.433-11.434l11.433,11.434c3.132,3.131,8.207,3.131,11.338,0 l11.433-11.434l11.433,11.434c3.089,3.088,8.249,3.088,11.338,0l3.537-3.537l29.131,58.26H38.09z M201.093,448.935 l-64.401-128.802l70.196-140.386l9.237,9.237c3.132,3.131,8.207,3.131,11.338,0l11.433-11.434l11.433,11.434 c3.132,3.131,8.207,3.131,11.338,0L273.1,177.55l11.433,11.434c3.089,3.088,8.249,3.088,11.338,0l9.237-9.237l35.808,71.616 c0.059,0.118,0.128,0.226,0.191,0.339l-98.616,197.233H201.093z"/> </g> </g><g> <g> <path d="M469.779,81.235c-0.18,0-0.359,0.001-0.539,0.004c0.003-0.18,0.004-0.358,0.004-0.539c0-18.566-15.105-33.67-33.67-33.67 c-18.566,0-33.67,15.105-33.67,33.67c0,0.18,0.001,0.359,0.004,0.539c-0.18-0.002-0.359-0.004-0.539-0.004 c-18.566,0-33.67,15.104-33.67,33.67s15.105,33.67,33.67,33.67h68.409c18.566,0,33.67-15.105,33.67-33.67 S488.344,81.235,469.779,81.235z M469.779,132.542H401.37c-9.725,0-17.637-7.912-17.637-17.637s7.912-17.637,17.637-17.637 c2.659,0,5.213,0.576,7.59,1.712c3.065,1.465,6.722,0.839,9.126-1.564c2.403-2.403,3.029-6.06,1.564-9.126 c-1.136-2.377-1.712-4.93-1.712-7.59c0-9.725,7.912-17.637,17.637-17.637s17.637,7.912,17.637,17.637 c0,2.659-0.576,5.213-1.712,7.59c-1.465,3.066-0.839,6.723,1.564,9.126c2.404,2.404,6.062,3.029,9.126,1.564 c2.377-1.136,4.93-1.712,7.59-1.712c9.725,0,17.637,7.912,17.637,17.637S479.504,132.542,469.779,132.542z"/> </g> </g><g> <g> <path d="M110.092,158.2c0.003-0.18,0.004-0.358,0.004-0.539c0-18.566-15.104-33.67-33.67-33.67s-33.67,15.104-33.67,33.67 c0,0.18,0.001,0.359,0.004,0.539c-0.18-0.002-0.359-0.004-0.539-0.004c-18.566,0-33.67,15.104-33.67,33.67 s15.105,33.67,33.67,33.67h68.409c18.566,0,33.67-15.105,33.67-33.67C144.302,173.121,128.888,157.941,110.092,158.2z M110.63,209.503H42.221c-9.725,0-17.637-7.912-17.637-17.637s7.912-17.637,17.637-17.637c2.659,0,5.213,0.576,7.59,1.712 c3.065,1.467,6.721,0.839,9.126-1.564c2.403-2.403,3.029-6.06,1.564-9.126c-1.136-2.377-1.712-4.93-1.712-7.59 c0-9.725,7.912-17.637,17.637-17.637s17.637,7.912,17.637,17.637c0,2.659-0.576,5.213-1.712,7.59 c-1.451,3.034-0.813,6.75,1.564,9.126c2.376,2.375,6.093,3.015,9.126,1.564c2.377-1.136,4.93-1.712,7.59-1.712 c9.725,0,17.637,7.912,17.637,17.637S120.355,209.503,110.63,209.503z"/> </g> </g></symbol><symbol id="mountain-2" viewBox="0 0 512 512"><title>mountain-2</title><g> <g> <path d="M353.089,301.835l-9.814-16.998c-2.389-4.139-7.682-5.554-11.818-3.166c-4.138,2.389-5.555,7.68-3.166,11.818 l9.814,16.998c1.602,2.774,4.51,4.327,7.5,4.327c1.467,0,2.956-0.375,4.318-1.16C354.061,311.264,355.478,305.973,353.089,301.835 z"/> </g> </g><g> <g> <path d="M511.424,433.746l-67.179-174.754c-0.969-2.521-3.06-4.446-5.654-5.201c-2.595-0.757-5.391-0.257-7.563,1.348 l-15.833,11.705l-60.281-104.421c-1.546-2.677-4.402-4.326-7.493-4.326c-3.091,0-5.947,1.649-7.493,4.326l-33.666,58.31 l-47.84-82.846c-1.546-2.676-4.402-4.326-7.492-4.326c-3.091,0-5.946,1.65-7.492,4.326l-50.906,88.18l-11.277-19.534 c0,0-0.001-0.001-0.001-0.002v-0.001l-17.325-29.991c-1.546-2.676-4.402-4.324-7.492-4.324s-5.946,1.649-7.491,4.326 L1.159,432.525c-1.546,2.677-1.546,5.975,0,8.651c1.546,2.676,4.401,4.326,7.492,4.326h77.79c4.778,0,8.651-3.873,8.651-8.651 c0-4.778-3.873-8.651-8.651-8.651H23.635l89.912-155.74l24.637,24.637c1.689,1.689,3.903,2.534,6.117,2.534 s4.428-0.844,6.117-2.534l16.979-16.979l40.957,7.967l12.406,21.491c1.602,2.775,4.51,4.326,7.499,4.326 c1.468,0,2.956-0.375,4.319-1.162c4.138-2.39,5.554-7.681,3.165-11.819l-33.223-57.55l18.982-32.879l32.455,28.673 c1.64,1.45,3.685,2.167,5.726,2.167c2.221,0,4.435-0.85,6.119-2.534l19.596-19.596l25.792,44.665 c1.603,2.775,4.51,4.327,7.5,4.327c1.467,0,2.956-0.375,4.319-1.16c4.138-2.389,5.555-7.68,3.166-11.819l-9.922-17.182 l31.167-53.981l53.771,93.141l-9.958,7.358c-3.843,2.839-4.657,8.257-1.817,12.099c1.697,2.297,4.313,3.51,6.965,3.51 c1.786,0,3.587-0.551,5.134-1.694l30.658-22.659l58.582,152.39h-64.712l-22.084-38.26c-2.389-4.139-7.681-5.557-11.818-3.169 c-4.139,2.389-5.556,7.679-3.169,11.818l17.091,29.611H121.047c-4.778,0-8.651,3.873-8.651,8.651c0,4.778,3.873,8.651,8.651,8.651 h382.301c2.85,0,5.517-1.404,7.131-3.752C512.093,439.398,512.446,436.406,511.424,433.746z M166.186,262.255 c-2.823-0.549-5.735,0.34-7.769,2.375l-14.115,14.115l-21.799-21.799l33.936-58.781l9.83,17.015v0.001l18.834,32.624 c0.024,0.039,0.045,0.081,0.069,0.12l11.719,20.301L166.186,262.255z M259.319,220.814l-28.99-25.612l20.602-35.687l25.509,44.176 L259.319,220.814z"/> </g> </g><g> <g> <path d="M376.257,66.499c-45.344,0-82.232,36.889-82.232,82.232c0,11.722,2.419,23.047,7.187,33.665 c1.958,4.358,7.078,6.303,11.437,4.345c4.358-1.958,6.304-7.079,4.346-11.437c-3.761-8.372-5.668-17.313-5.668-26.573 c0-35.803,29.127-64.93,64.93-64.93s64.93,29.127,64.93,64.93c0,25.464-14.997,48.7-38.207,59.195 c-4.353,1.969-6.288,7.094-4.319,11.447c1.445,3.196,4.593,5.089,7.888,5.089c1.192,0,2.403-0.248,3.56-0.771 c29.39-13.289,48.381-42.714,48.381-74.961C458.49,103.387,421.601,66.499,376.257,66.499z"/> </g> </g></symbol><symbol id="mountain-1" viewBox="0 0 512 512"><title>mountain-1</title><g> <g> <path d="M506.176,499.262L329.744,259.815c-2.626-3.564-7.644-4.322-11.21-1.699c-3.564,2.626-4.325,7.645-1.699,11.21 l52.621,71.415l-6.559,6.56l-28.537-28.538c-3.132-3.13-8.208-3.13-11.339,0l-28.537,28.538l-28.537-28.538 c-3.132-3.13-8.208-3.13-11.339,0l-28.537,28.538l-28.537-28.538c-3.132-3.13-8.208-3.13-11.339,0l-28.537,28.538l-6.559-6.56 l109.18-148.173l37.652,51.099c2.592,3.516,7.693,4.29,11.21,1.699c3.518-2.591,4.289-7.694,1.699-11.21l-42.544-57.737v-57.763 h60.931v34.742c0,4.429,3.589,8.017,8.017,8.017h119.725c6.988,0,10.616-8.739,5.67-13.687l-37.094-37.089l37.09-37.089 c4.946-4.948,1.32-13.687-5.669-13.687h-68.949V25.121c0-4.429-3.589-8.017-8.017-8.017h-59.862c-4.429,0-8.017,3.589-8.017,8.017 c0,4.429,3.589,8.017,8.017,8.017h51.845v69.483h-103.69V33.138h17.638c4.429,0,8.017-3.589,8.017-8.017 c0-4.429-3.589-8.017-8.017-8.017h-17.638V8.017c0-4.429-3.589-8.017-8.017-8.017c-4.429,0-8.017,3.589-8.017,8.017v168.4 L134.097,336.78L14.372,499.263c-2.518,3.419-1.874,8.386,1.46,11.028c3.507,2.779,8.791,2.094,11.45-1.516l114.194-154.978 l10.51,10.511c3.132,3.13,8.208,3.13,11.339,0l28.537-28.538l28.537,28.538c3.132,3.13,8.208,3.13,11.339,0l28.537-28.538 l28.537,28.538c3.132,3.13,8.208,3.13,11.339,0l28.537-28.538l28.537,28.538c3.132,3.13,8.208,3.13,11.339,0l10.51-10.511 l114.194,154.978c2.833,3.845,8.556,4.325,12.007,1.027C508.147,507.056,508.531,502.459,506.176,499.262z M345.258,118.656H380 c4.429,0,8.017-3.589,8.017-8.017V75.897h49.594l-29.073,29.072c-3.131,3.132-3.131,8.208,0,11.339l29.072,29.073h-92.353V118.656 z"/> </g> </g><g> <g> <path d="M174.219,34.211c0.003-0.18,0.004-0.359,0.004-0.539C174.224,15.106,159.118,0,140.551,0 c-18.567,0-33.673,15.106-33.673,33.673c0,0.18,0.001,0.359,0.004,0.539c-0.18-0.003-0.359-0.004-0.539-0.004 c-18.567,0-33.673,15.106-33.673,33.673c0,18.567,15.106,33.672,33.673,33.672h68.414c18.567,0,33.673-15.106,33.673-33.672 C208.431,49.134,192.992,33.949,174.219,34.211z M174.758,85.518h-68.414c-9.725,0-17.638-7.913-17.638-17.638 c0-9.726,7.912-17.638,17.638-17.638c2.66,0,5.213,0.576,7.591,1.712c3.033,1.452,6.75,0.811,9.127-1.564s3.013-6.094,1.564-9.127 c-1.136-2.377-1.712-4.93-1.712-7.591c0-9.726,7.912-17.638,17.638-17.638c9.725,0,17.638,7.912,17.638,17.638 c0,2.66-0.576,5.213-1.712,7.591c-1.451,3.034-0.813,6.751,1.564,9.127c2.376,2.375,6.094,3.016,9.127,1.564 c2.377-1.136,4.93-1.712,7.591-1.712c9.726,0,17.638,7.912,17.638,17.638C192.396,77.605,184.484,85.518,174.758,85.518z"/> </g> </g><g> <g> <path d="M474.069,222.346c-0.18,0-0.359,0.001-0.539,0.004c0.003-0.18,0.004-0.359,0.004-0.539 c0-18.567-15.106-33.673-33.673-33.673s-33.673,15.106-33.673,33.673c0,0.18,0.001,0.359,0.004,0.539 c-0.18-0.003-0.359-0.004-0.539-0.004c-18.567,0-33.673,15.106-33.673,33.673c0,18.567,15.106,33.672,33.673,33.672h68.414 c18.567,0,33.673-15.106,33.673-33.672C507.742,237.451,492.636,222.346,474.069,222.346z M474.069,273.656h-68.414 c-9.725,0-17.638-7.912-17.638-17.638c0-9.726,7.913-17.638,17.638-17.638c2.66,0,5.213,0.576,7.591,1.712 c3.034,1.452,6.751,0.812,9.127-1.564c2.376-2.376,3.013-6.093,1.564-9.127c-1.136-2.377-1.712-4.93-1.712-7.591 c0-9.725,7.912-17.638,17.638-17.638c9.726,0,17.638,7.913,17.638,17.638c0,2.66-0.576,5.213-1.712,7.591 c-1.451,3.034-0.813,6.751,1.564,9.127c2.376,2.375,6.094,3.016,9.127,1.564c2.377-1.136,4.931-1.712,7.591-1.712 c9.725,0,17.638,7.912,17.638,17.638C491.707,265.744,483.795,273.656,474.069,273.656z"/> </g> </g><g> <g> <path d="M106.344,256.553c-0.18,0-0.359,0.001-0.539,0.004c0.003-0.18,0.004-0.359,0.004-0.539 c0-18.567-15.106-33.673-33.673-33.673s-33.673,15.106-33.673,33.673c0,0.18,0.001,0.359,0.004,0.539 c-18.774-0.262-34.21,14.923-34.211,33.668c0,18.567,15.106,33.673,33.673,33.673h68.414c18.567,0,33.673-15.106,33.673-33.673 C140.017,271.658,124.911,256.553,106.344,256.553z M106.344,307.863H37.93c-9.725,0-17.638-7.912-17.638-17.638 c0-9.725,7.913-17.638,17.638-17.638c2.66,0,5.213,0.576,7.591,1.712c3.033,1.452,6.751,0.812,9.127-1.564 c2.376-2.376,3.013-6.093,1.564-9.127c-1.136-2.377-1.712-4.93-1.712-7.591c0-9.726,7.913-17.638,17.638-17.638 s17.638,7.912,17.638,17.638c0,2.66-0.576,5.213-1.713,7.591c-1.44,3.012-0.796,6.768,1.564,9.127 c2.359,2.359,6.116,3.005,9.127,1.564c2.377-1.136,4.93-1.713,7.591-1.713c9.725,0,17.638,7.913,17.638,17.638 C123.982,299.951,116.069,307.863,106.344,307.863z"/> </g> </g></symbol><symbol id="mountain" viewBox="0 0 512.002 512.002"><title>mountain</title><g> <g> <path d="M507.007,417.27l-35.089-12.451v-108.61l27.277,27.277c1.465,1.464,3.385,2.196,5.304,2.196 c1.919,0,3.839-0.732,5.304-2.196c2.929-2.93,2.929-7.678,0-10.607l-25.331-25.331h20.027c4.143,0,7.5-3.357,7.5-7.5v-32.065 c0-4.143-3.357-7.5-7.5-7.5h-32.581v-0.516c0-4.143-3.357-7.5-7.5-7.5s-7.5,3.357-7.5,7.5v20.028L326.404,129.481 c-12.301-12.299-32.315-12.299-44.616,0l-29.796,29.797l-61.861-61.861c-12.301-12.301-32.316-12.301-44.617,0l-98.449,98.45 v-60.625h32.581c4.143,0,7.5-3.357,7.5-7.5V95.677c0-4.143-3.357-7.5-7.5-7.5H47.064V87.66c0-4.143-3.357-7.5-7.5-7.5 s-7.5,3.357-7.5,7.5v123.206L2.196,240.735c-1.706,1.706-2.411,4.028-2.129,6.25c-0.466,3.443,1.52,6.858,4.925,8.067l497,176.355 c0.829,0.294,1.675,0.434,2.508,0.434c3.086,0,5.978-1.92,7.068-4.994C512.952,422.943,510.912,418.655,507.007,417.27z M471.918,255.483h25.081v0v17.065h-25.081V255.483z M32.064,248.741l-12.296-4.363l12.296-12.296V248.741z M292.394,140.088 c6.452-6.452,16.951-6.452,23.403,0l42.155,42.155l-16.176,16.176c-0.037,0.038-0.15,0.151-0.364,0.151 c-0.214,0-0.327-0.113-0.364-0.151l-14.382-14.382c-6.05-6.048-15.894-6.051-21.943,0l-13.986,13.985l-28.138-28.138 L292.394,140.088z M47.064,103.177h25.081v17.064H47.064V103.177z M456.923,399.498l-41.112-14.588v-25.215h16.547 c2.371,0,4.602-1.121,6.018-3.023c1.415-1.901,1.848-4.361,1.166-6.632l-24.049-80.161c-0.951-3.172-3.871-5.345-7.184-5.345 s-6.232,2.173-7.184,5.345l-8.892,29.64l-65.67-65.671c-2.929-2.928-7.677-2.928-10.607,0c-2.929,2.93-2.929,7.678,0,10.607 l71.382,71.383l-10.26,34.202c-0.682,2.271-0.249,4.73,1.166,6.632c1.416,1.902,3.646,3.023,6.018,3.023h16.55v19.893 l-129.291-45.877v-22.112h16.549c2.46,0,4.764-1.206,6.164-3.228c1.401-2.022,1.722-4.603,0.858-6.906l-24.048-64.129 c-1.098-2.927-3.896-4.866-7.022-4.866c-3.126,0-5.925,1.939-7.022,4.866l-24.049,64.129c-0.863,2.304-0.543,4.884,0.858,6.905 c1.4,2.022,3.704,3.229,6.164,3.229h16.548v16.789l-57.145-20.277v-20.56h16.548c2.411,0,4.675-1.159,6.084-3.114 c1.41-1.956,1.794-4.471,1.031-6.758l-24.048-72.146c-1.021-3.063-3.887-5.128-7.115-5.128c-3.228,0-6.095,2.065-7.115,5.128 l-24.049,72.146c-0.763,2.287-0.379,4.802,1.031,6.758c1.409,1.955,3.673,3.114,6.084,3.114h16.549v15.237L47.064,254.064v-36.982 l28.322-28.323l3.401,3.4c4.445,4.444,10.354,6.892,16.64,6.892c6.118,0,11.878-2.317,16.279-6.539l14.176,14.177 c4.588,4.587,10.614,6.881,16.641,6.881c6.025,0,12.052-2.294,16.64-6.881l31.47-31.471c2.945,2.565,7.417,2.445,10.222-0.358 c2.929-2.93,2.929-7.678,0-10.607c-2.734-2.733-6.369-4.239-10.235-4.239c-3.866,0-7.501,1.506-10.234,4.239l-31.829,31.829 c-3.327,3.329-8.74,3.327-12.065,0l-14.544-14.544c-2.734-2.734-6.369-4.24-10.235-4.24c-3.866,0-7.501,1.506-10.235,4.239 c-0.017,0.018-0.035,0.036-0.054,0.056c-1.607,1.586-3.733,2.459-5.994,2.459c-2.278,0-4.421-0.887-6.032-2.499l-3.401-3.4 l70.127-70.128c6.451-6.453,16.951-6.453,23.402,0l81.902,81.901l-11.416,11.417c-1.611,1.611-3.754,2.499-6.033,2.499 c-2.278,0-4.421-0.888-6.032-2.5l-14.716-14.716c-2.93-2.928-7.678-2.928-10.607,0c-2.929,2.93-2.929,7.678,0,10.607 l14.716,14.715c4.444,4.445,10.354,6.894,16.64,6.894s12.196-2.448,16.641-6.893l11.416-11.416l22.127,22.127 c2.93,2.928,7.678,2.928,10.607,0c2.929-2.93,2.929-7.678,0-10.607l-3.423-3.423l13.986-13.984 c0.037-0.038,0.151-0.151,0.365-0.151c0.213,0,0.327,0.113,0.364,0.151l14.382,14.382c6.051,6.049,15.893,6.049,21.943,0 l16.176-16.176l88.359,88.359V399.498z M394.336,344.693l13.968-46.561l13.969,46.561H394.336z M250.789,296.596l13.227-35.269 l13.226,35.269H250.789z M178.227,272.548l13.644-40.929l13.643,40.929H178.227z"/> </g> </g><g> <g> <path d="M362.753,398.148l-19.572-6.945c-3.899-1.383-8.19,0.656-9.576,4.561c-1.385,3.903,0.656,8.19,4.561,9.576l19.572,6.945 c0.829,0.294,1.675,0.434,2.508,0.434c3.086,0,5.978-1.92,7.068-4.994C368.699,403.821,366.658,399.533,362.753,398.148z"/> </g> </g><g> <g> <path d="M314.615,381.066l-199.939-70.947c-3.899-1.385-8.191,0.656-9.576,4.561c-1.385,3.903,0.656,8.19,4.561,9.576 l199.938,70.946c0.829,0.294,1.675,0.434,2.508,0.434c3.086,0,5.978-1.92,7.068-4.994 C320.56,386.739,318.519,382.451,314.615,381.066z"/> </g> </g></symbol><symbol id="sports" viewBox="0 0 512.001 512.001"><title>sports</title><path d="M493.532,475.061c-2.807-3.076-7.652-3.144-10.81-0.431l-9.118,7.83c-19.109,16.41-46.611,18.985-68.437,6.41 l-124.486-71.738c7.665-21.37,0.593-45.213-17.539-58.937l42.281-71.574l63.556,31.239c5.239,2.575,10.837,3.88,16.64,3.88 c0.001,0,0.001,0,0.002,0c14.521,0,27.52-8.092,33.923-21.119c3.634-7.393,4.737-15.581,3.249-23.536l14.844,7.299 c1.079,0.53,2.224,0.782,3.35,0.782c2.983,0,5.844-1.762,7.062-4.767c1.513-3.737-0.335-8.008-3.952-9.787l-41.528-20.419 c-0.088-0.044-0.172-0.093-0.262-0.137l-43.774-21.516l-5.067-2.492c-0.005-0.002-0.01-0.004-0.015-0.006l-10.57-5.195 l13.358-13.358c4.144-4.144,7.199-9.085,9.038-14.472c12.841,6.87,27.172,10.397,42.019,10.228 c47.619-0.538,86.331-39.791,86.244-87.414c-0.088-48.039-39.198-87.094-87.257-87.094c-14.366,0-27.919,3.511-39.882,9.688 c0.031-0.615,0.047-1.234,0.047-1.857c0-21.027-17.841-37.967-39.18-36.476c-18.013,1.258-32.605,15.85-33.863,33.863 c-1.49,21.34,15.449,39.18,36.476,39.18c0.15,0,0.298-0.01,0.448-0.011c-5.998,10.584-9.845,22.533-10.95,35.261H183.326 c-14.958,0-28.54,4.841-39.277,14.003c-0.179,0.153-0.351,0.315-0.529,0.47l-33.452-16.442l5.655-11.309 c1.73-3.459,0.785-7.786-2.431-9.934c-3.888-2.599-9.033-1.143-11.057,2.904l-5.816,11.632L74.164,88.77 c-3.737-1.837-8.411-0.559-10.359,3.121c-2.016,3.808-0.474,8.501,3.364,10.386l22.449,11.033l-5.353,10.706 c-1.816,3.631-0.676,8.185,2.832,10.228c1.216,0.708,2.535,1.041,3.832,1.041c2.789,0,5.475-1.541,6.807-4.205l5.531-11.062 l29.903,14.698c-4.075,6.136-7.098,13.062-8.82,20.388c-3.016,12.833-1.93,26.352,3.06,38.067 c5.531,12.985,15.532,23.37,28.925,30.035l11.155,5.551c3.76,1.871,8.324,0.34,10.196-3.42c1.871-3.76,0.34-8.324-3.42-10.196 l-11.155-5.551c-23.753-11.82-27.75-34.864-23.955-51.005c1.333-5.67,3.912-11.67,7.838-17.074l112.892,55.486l-7.755,7.755 c-8.599,8.598-12.545,20.894-10.557,32.889c1.988,11.996,9.691,22.36,20.604,27.724l29.556,14.528l-28.119,47.6l-54.537-29.6 l25.752-43.5c1.582-2.672,1.426-6.131-0.673-8.722c-0.701-0.865-1.62-1.531-2.617-2.027l-25.998-12.937 c-3.76-1.871-8.324-0.34-10.196,3.42c-1.871,3.76-0.34,8.324,3.42,10.196l18.81,9.36l-56.097,94.758l-133.597-76.99 c-3.639-2.098-8.289-0.848-10.385,2.791c-2.097,3.639-0.847,8.289,2.791,10.385l377.286,217.42 c11.587,6.677,24.446,9.953,37.247,9.953c17.476,0,34.84-6.107,48.691-18.002l9.36-8.039 C496.118,483.174,496.436,478.244,493.532,475.061z M395.727,263.779c5.343,2.669,9.347,7.24,11.276,12.9 c1.945,5.705,1.551,11.826-1.107,17.236c-3.825,7.784-11.595,12.619-20.275,12.619c-3.457,0-6.799-0.781-9.931-2.321l-8.454-4.155 l19.907-40.5L395.727,263.779z M406.283,188.043c-14.08,0-27.569-4.016-39.238-11.632c-0.965-8.437-4.712-16.25-10.807-22.344 c-4.647-4.647-10.215-7.823-16.121-9.538c-2.899-6.682-4.734-13.689-5.485-20.935H441.98l-0.583,12.171 c-0.201,4.195,3.037,7.758,7.231,7.959c0.124,0.006,0.247,0.009,0.37,0.009c4.033,0,7.394-3.169,7.589-7.24l0.617-12.899h20.721 C474.118,159.762,443.443,188.043,406.283,188.043z M406.283,43.947c25.082,0,47.201,12.891,60.108,32.388h-15.209 c-4.2,0-7.604,3.405-7.604,7.604s3.405,7.604,7.604,7.604h22.87c1.937,5.35,3.257,10.993,3.874,16.842H334.639 c0.617-5.85,1.938-11.492,3.874-16.842h77.182c4.2,0,7.604-3.405,7.604-7.604s-3.405-7.604-7.604-7.604h-69.52 C359.081,56.839,381.201,43.947,406.283,43.947z M329.88,57.928c-11.778,0-21.358-9.581-21.358-21.359s9.581-21.359,21.358-21.359 s21.359,9.581,21.359,21.359S341.657,57.928,329.88,57.928z M158.777,130.358c6.506-4.134,14.642-6.764,24.549-6.764h136.023 c0.582,6.826,1.96,13.482,4.109,19.924c-7.563,1.222-14.823,4.731-20.642,10.549l-31.568,31.569L158.777,130.358z M268.885,251.718c-6.517-3.205-11.12-9.397-12.307-16.563c-1.188-7.166,1.169-14.511,6.306-19.647l50.684-50.685 c4.4-4.399,10.179-6.598,15.958-6.598c5.778,0,11.559,2.2,15.957,6.598c4.262,4.263,6.611,9.93,6.611,15.958 s-2.347,11.695-6.611,15.958l-20.872,20.872c-1.735,1.735-2.527,4.201-2.125,6.621c0.402,2.42,1.946,4.499,4.147,5.581 l24.026,11.81l22.832,11.227l-19.908,40.501L268.885,251.718z M267.198,409.365l-92.54-53.328l26.668-45.046l54.549,29.607 l-9.528,16.128c-1.035,1.752-1.325,3.847-0.803,5.814c0.521,1.968,1.809,3.644,3.576,4.655l0.756,0.433 C264.829,376.172,271.583,393.433,267.198,409.365z"/></symbol></svg>