<svg version="1.1" id="Calque_1" xmlns="http://www.w3.org/2000/svg" xmlns:xlink="http://www.w3.org/1999/xlink" x="0px" y="0px"
	  viewBox="0 0 152.094 54.164" enable-background="new 0 0 152.094 54.164"
	 xml:space="preserve">
<path fill="#FFDD00" d="M0,22.374L20.736,1.386c0.377-0.377,1.005-0.377,1.382,0c0.252,0.377,0.252,1.006,0,1.383L1.885,23.128
	l20.233,20.295c0.252,0.378,0.252,0.943,0,1.32c-0.188,0.188-0.502,0.251-0.754,0.251c-0.188,0-0.44-0.063-0.628-0.251L0,23.819"/>
<path fill="#E4342D" d="M34.973,11.562c-0.44,0-0.754-0.377-0.754-0.817c0-0.376,0.314-0.817,0.754-0.817h21.113
	c0.377,0,0.502,0.063,0.691,0.189c0.188,0.126,0.251,0.314,0.314,0.503v0.125v0.126c0,0.063-0.063,0.126-0.063,0.189
	c-0.063,0.188-0.188,0.314-0.314,0.44L36.481,39.146h19.793c0.503,0,0.817,0.377,0.817,0.754c0,0.504-0.314,0.817-0.817,0.817
	H34.973c-0.126,0-0.251,0-0.314-0.063c-0.126-0.063-0.252-0.125-0.315-0.188c-0.251-0.252-0.314-0.691,0-1.006l20.359-27.899H34.973
	z"/>
<path fill="#009F95" d="M70.913,10.682c0-0.503,0.314-0.754,0.817-0.754c0.377,0,0.754,0.251,0.754,0.754v29.219
	c0,0.438-0.377,0.815-0.754,0.815c-0.503,0-0.817-0.377-0.817-0.815V10.682z M70.913,0.817C70.913,0.314,71.227,0,71.73,0
	c0.377,0,0.754,0.314,0.754,0.817v1.508c0,0.377-0.377,0.754-0.754,0.754c-0.503,0-0.817-0.377-0.817-0.754V0.817z"/>
<path fill="#F7B234" d="M90.076,25.135c0,7.54,5.97,13.635,13.134,13.635c7.226,0,13.194-6.095,13.194-13.635
	c0-7.478-5.969-13.636-13.194-13.636c-6.976,0-12.882,5.844-13.134,13.07V25.135z M88.506,25.763v-0.628v-0.629V10.745
	c0-0.503,0.314-0.816,0.816-0.816c0.44,0,0.754,0.313,0.754,0.816v7.603c2.389-5.026,7.416-8.419,13.134-8.419
	c8.294,0,14.829,6.786,14.829,15.206s-6.535,15.27-14.829,15.27c-5.718,0-10.745-3.457-13.134-8.357v21.301
	c0,0.502-0.313,0.816-0.754,0.816c-0.502,0-0.816-0.314-0.816-0.816V25.763z"/>
<path fill="#DEDA00" d="M152.094,23.819l-20.736,20.924c-0.188,0.189-0.439,0.251-0.628,0.251"/>
<path fill="#DEDA00" d="M130.729,44.994c-0.251,0-0.565-0.062-0.754-0.251c-0.251-0.377-0.251-0.942,0-1.319l20.171-20.296
	L129.976,2.769c-0.251-0.377-0.251-1.005,0-1.382c0.377-0.377,1.005-0.377,1.382,0l20.673,20.987"/>
</svg>
